<?xml version="1.0" encoding="UTF-8"?>
<svg width="100px" height="208px" viewBox="0 0 100 208" version="1.1" xmlns="http://www.w3.org/2000/svg" xmlns:xlink="http://www.w3.org/1999/xlink">
    <!-- Generator: sketchtool 52.2 (67145) - http://www.bohemiancoding.com/sketch -->
    <title>0134D3EE-495C-41C5-AD56-DD35F8A80F31</title>
    <desc>Created with sketchtool.</desc>
    <g id="Page-1" stroke="none" stroke-width="1" fill="none" fill-rule="evenodd" opacity="0.767243304">
        <g id="Desktop-HD" transform="translate(-393.000000, -2920.000000)" fill="#D2DAF6" fill-rule="nonzero">
            <g id="back_ecom" transform="translate(120.000000, 2896.000000)">
                <path d="M448.928753,225.07307 L436.282977,74.6164355 C436.055535,71.6389981 433.690138,69.3819085 430.824368,69.3819085 L404.168163,69.3819085 C404.122675,44.3618298 384.835591,24 361.136132,24 C337.436674,24 318.14959,44.3618298 318.104102,69.3819085 L291.447896,69.3819085 C288.627615,69.3819085 286.262218,71.6389981 285.989288,74.6164355 L273.343511,225.07307 C273.343511,225.265162 273.343511,225.409232 273.343511,225.601325 C273.343511,242.361416 287.945289,256 305.867721,256 L416.404544,256 C434.326975,256 448.928753,242.361416 448.928753,225.601325 C448.928753,225.409232 448.928753,225.265162 448.928753,225.07307 Z M361.136132,35.5255641 C378.831122,35.5255641 393.205458,50.7008901 393.250946,69.3819085 L329.021319,69.3819085 C329.066807,50.7008901 343.441143,35.5255641 361.136132,35.5255641 Z M416.404544,244.426413 L305.867721,244.426413 C294.040736,244.426413 284.397194,236.118402 284.260729,225.793418 L296.451621,80.9074726 L318.104102,80.9074726 L318.104102,101.125233 C318.104102,104.294763 320.560475,106.888015 323.56271,106.888015 C326.564945,106.888015 329.021319,104.294763 329.021319,101.125233 L329.021319,80.9074726 L393.250946,80.9074726 L393.250946,101.125233 C393.250946,104.294763 395.70732,106.888015 398.709555,106.888015 C401.711789,106.888015 404.168163,104.294763 404.168163,101.125233 L404.168163,80.9074726 L425.820644,80.9074726 L438.011536,225.841441 C437.875071,236.118402 428.231529,244.426413 416.404544,244.426413 Z" id="bag"></path>
            </g>
        </g>
    </g>
</svg>