<?xml version="1.0" encoding="UTF-8"?>
<svg width="129px" height="88px" viewBox="0 0 129 88" version="1.1" xmlns="http://www.w3.org/2000/svg" xmlns:xlink="http://www.w3.org/1999/xlink">
    <!-- Generator: sketchtool 52.2 (67145) - http://www.bohemiancoding.com/sketch -->
    <title>5040E308-E7C8-4C7B-9667-1B297A97D57F</title>
    <desc>Created with sketchtool.</desc>
    <defs>
        <linearGradient x1="-12.364353%" y1="0%" x2="95.7635295%" y2="92.2101239%" id="linearGradient-1">
            <stop stop-color="#BED6FF" offset="0%"></stop>
            <stop stop-color="#E5FBFF" offset="100%"></stop>
        </linearGradient>
        <linearGradient x1="25.1730287%" y1="-179.276679%" x2="50%" y2="98.6271676%" id="linearGradient-2">
            <stop stop-color="#6082FF" offset="0%"></stop>
            <stop stop-color="#A5C2FF" offset="100%"></stop>
        </linearGradient>
    </defs>
    <g id="Page-1" stroke="none" stroke-width="1" fill="none" fill-rule="evenodd">
        <g id="Desktop-HD" transform="translate(-1070.000000, -1133.000000)">
            <g id="icon_development" transform="translate(1070.000000, 1133.000000)">
                <path d="M125.891765,87.0425 L2.86117647,87.0425 C1.28109176,87.0425 9.9475983e-14,85.7681346 9.9475983e-14,84.1963462 L9.9475983e-14,2.84615385 C9.9475983e-14,1.27436538 1.28109176,0 2.86117647,0 L125.891765,0 C127.471849,0 128.752941,1.27436538 128.752941,2.84615385 L128.752941,84.1963462 C128.752941,85.7681346 127.471849,87.0425 125.891765,87.0425" id="Fill-28" fill="url(#linearGradient-1)"></path>
                <path d="M123.285327,35.1871442 L100.983529,35.1871442 C100.440264,35.1871442 100,34.7495481 100,34.2087788 L100,19.9783654 C100,19.4379519 100.440264,19 100.983529,19 L123.285327,19 C123.828593,19 124.268856,19.4379519 124.268856,19.9783654 L124.268856,34.2087788 C124.268856,34.7495481 123.828593,35.1871442 123.285327,35.1871442" id="Fill-30" fill="#FFFFFF"></path>
                <path d="M121.651275,32.1924519 L102.595125,32.1924519 C102.266447,32.1924519 102,31.9274038 102,31.6004519 L102,27.592 C102,27.2650481 102.266447,27 102.595125,27 L121.651275,27 C121.980311,27 122.246758,27.2650481 122.246758,27.592 L122.246758,31.6004519 C122.246758,31.9274038 121.980311,32.1924519 121.651275,32.1924519" id="Fill-32" fill="#DDEAF9"></path>
                <path d="M121.773329,25.0161442 L102.317588,25.0161442 C102.142367,25.0161442 102,24.9097692 102,24.7788462 L102,23.2372981 C102,23.106375 102.142367,23 102.317588,23 L121.773329,23 C121.94855,23 122.090918,23.106375 122.090918,23.2372981 L122.090918,24.7788462 C122.090918,24.9097692 121.94855,25.0161442 121.773329,25.0161442" id="Fill-42" fill="#DDEAF9"></path>
                <path d="M128.752941,7.11538462 L128.752941,2.84615385 C128.752941,1.27436538 127.471849,6.52811138e-14 125.891765,6.52811138e-14 L2.86117647,6.52811138e-14 C1.28109176,6.52811138e-14 9.9475983e-14,1.27436538 9.9475983e-14,2.84615385 L9.9475983e-14,7.11538462 L128.752941,7.11538462 Z" id="Fill-44" fill="#3555DA"></path>
                <path d="M118.319492,14.8257212 L11.4305882,14.8257212 C10.6405459,14.8257212 10,14.1885385 10,13.4026442 L10,10.4230769 C10,9.63718269 10.6405459,9 11.4305882,9 L118.319492,9 C119.109534,9 119.75008,9.63718269 119.75008,10.4230769 L119.75008,13.4026442 C119.75008,14.1885385 119.109534,14.8257212 118.319492,14.8257212" id="Fill-49" fill="#FFFFFF"></path>
                <path d="M126.666579,10.1778846 L122,10.1778846" id="Stroke-51" stroke="#7EAFE9" stroke-width="0.536470588" stroke-linecap="round" stroke-linejoin="round"></path>
                <path d="M126.666579,12.1778846 L122,12.1778846" id="Stroke-53" stroke="#7EAFE9" stroke-width="0.536470588" stroke-linecap="round" stroke-linejoin="round"></path>
                <path d="M126.666579,14.1778846 L122,14.1778846" id="Stroke-55" stroke="#7EAFE9" stroke-width="0.536470588" stroke-linecap="round" stroke-linejoin="round"></path>
                <path d="M5.24065882,10.1302115 L3.12481882,11.6824327 C3.04470588,11.7685288 3,11.8816635 3,11.9990673 L3,14.5606058 C3,14.7285288 3.13697882,14.8647885 3.30578824,14.8647885 L4.54932706,14.8647885 C4.71813647,14.8647885 4.85511529,14.7285288 4.85511529,14.5606058 L4.85511529,12.9354519 C4.85511529,12.5857308 5.09366588,12.2559327 5.44165647,12.2071923 C5.86511059,12.1477788 6.22776471,12.4733077 6.22776471,12.8827981 L6.22776471,14.5606058 C6.22776471,14.7285288 6.36474353,14.8647885 6.53355294,14.8647885 L7.77744941,14.8647885 C7.94590118,14.8647885 8.08288,14.7285288 8.08288,14.5606058 L8.08288,11.9990673 C8.08288,11.8816635 8.03817412,11.7685288 7.95806118,11.6824327 L5.84222118,10.1302115 C5.67984941,9.95659615 5.40338824,9.95659615 5.24065882,10.1302115 Z" id="Stroke-57" stroke="#7EAFE9" stroke-width="0.536470588" stroke-linecap="round" stroke-linejoin="round"></path>
                <path d="M14.8754824,12.4301923 C14.8754824,13.22 14.2317176,13.8603846 13.4377412,13.8603846 C12.6437647,13.8603846 12,13.22 12,12.4301923 C12,11.6403846 12.6437647,11 13.4377412,11 C14.2317176,11 14.8754824,11.6403846 14.8754824,12.4301923 Z" id="Stroke-59" stroke="#41FFFF" stroke-width="0.536470588" stroke-linecap="round" stroke-linejoin="round"></path>
                <path d="M14.4792471,13.5535769 L14,13" id="Stroke-61" stroke="#41FFFF" stroke-width="0.536470588" stroke-linecap="round" stroke-linejoin="round"></path>
                <path d="M123.285327,81.7024916 L100.983529,81.7024916 C100.440264,81.7024916 100,81.0310245 100,80.2024636 L100,39.203153 C100,38.3745921 100.440264,37.703125 100.983529,37.703125 L123.285327,37.703125 C123.828593,37.703125 124.268856,38.3745921 124.268856,39.203153 L124.268856,80.2024636 C124.268856,81.0310245 123.828593,81.7024916 123.285327,81.7024916" id="Fill-73" fill="#FFFFFF"></path>
                <path d="M35.5844329,13.0161442 L18.2385506,13.0161442 C18.1069365,13.0161442 18,12.910125 18,12.7788462 L18,11.2372981 C18,11.106375 18.1069365,11 18.2385506,11 L35.5844329,11 C35.7160471,11 35.8229835,11.106375 35.8229835,11.2372981 L35.8229835,12.7788462 C35.8229835,12.910125 35.7160471,13.0161442 35.5844329,13.0161442" id="Fill-77" fill="#41FFFF"></path>
                <path d="M94.7424623,82 L6.25753769,82 C5.5629196,82 5,80.779685 5,79.2716535 L5,21.7283465 C5,20.2213071 5.5629196,19 6.25753769,19 L94.7424623,19 C95.4370804,19 96,20.2213071 96,21.7283465 L96,79.2716535 C96,80.779685 95.4370804,82 94.7424623,82" id="Fill-111" fill="#FFFFFF"></path>
                <path d="M73.4810732,51.1747981 L9.5189268,51.1747981 C9.23255311,51.1747981 9,50.9691635 9,50.7155 L9,44.4596538 C9,44.2056346 9.23255311,44 9.5189268,44 L73.4810732,44 C73.7678485,44 74,44.2056346 74,44.4596538 L74,50.7155 C74,50.9691635 73.7678485,51.1747981 73.4810732,51.1747981" id="Fill-133-Copy" fill="url(#linearGradient-2)"></path>
                <path d="M47.6371585,41.1747981 L9.31094174,41.1747981 C9.13934618,41.1747981 9,40.6538959 9,40.0113298 L9,24.1643695 C9,23.5209021 9.13934618,23 9.31094174,23 L47.6371585,23 C47.8089948,23 47.9481003,23.5209021 47.9481003,24.1643695 L47.9481003,40.0113298 C47.9481003,40.6538959 47.8089948,41.1747981 47.6371585,41.1747981" id="Fill-133-Copy" fill="url(#linearGradient-2)" transform="translate(28.474050, 32.087399) scale(-1, 1) translate(-28.474050, -32.087399) "></path>
                <path d="M90.3453539,62.1747981 L9.65464612,62.1747981 C9.29337469,62.1747981 9,61.9691635 9,61.7155 L9,55.4596538 C9,55.2056346 9.29337469,55 9.65464612,55 L90.3453539,55 C90.707132,55 91,55.2056346 91,55.4596538 L91,61.7155 C91,61.9691635 90.707132,62.1747981 90.3453539,62.1747981" id="Fill-133-Copy-2" fill="url(#linearGradient-2)"></path>
                <path d="M121.886228,52.0157885 L103.346193,52.0157885 C103.155423,52.0157885 103,51.4364194 103,50.720957 L103,42.2948315 C103,41.579369 103.155423,41 103.346193,41 L121.886228,41 C122.077518,41 122.232941,41.579369 122.232941,42.2948315 L122.232941,50.720957 C122.232941,51.4364194 122.077518,52.0157885 121.886228,52.0157885" id="Fill-139" fill="#DDEAF9"></path>
                <path d="M117.023984,10.0941899 L117.378769,10.8092861 C117.461028,10.9750745 117.620181,11.089988 117.804369,11.1170264 L118.597273,11.2315841 C118.736755,11.2515072 118.792548,11.4219207 118.691692,11.5197572 L118.118026,12.0761803 C117.984624,12.2053245 117.923824,12.3917476 117.955297,12.5739014 L118.090487,13.3597957 C118.114449,13.4978341 117.968887,13.6031418 117.844068,13.5380361 L117.134854,13.1669688 C116.970337,13.0808726 116.773273,13.0808726 116.608398,13.1669688 L115.898826,13.5380361 C115.774722,13.6031418 115.62916,13.4978341 115.652765,13.3597957 L115.788313,12.5739014 C115.819786,12.3917476 115.758986,12.2053245 115.625584,12.0761803 L115.05156,11.5197572 C114.950704,11.4219207 115.006139,11.2515072 115.145621,11.2315841 L115.938882,11.1170264 C116.122713,11.089988 116.282224,10.9750745 116.364482,10.8092861 L116.719268,10.0941899 C116.781499,9.96860337 116.961753,9.96860337 117.023984,10.0941899" id="Fill-149" fill="#41FFFF"></path>
            </g>
        </g>
    </g>
</svg>