<?xml version="1.0" encoding="UTF-8"?>
<svg width="143px" height="84px" viewBox="0 0 143 84" version="1.1" xmlns="http://www.w3.org/2000/svg" xmlns:xlink="http://www.w3.org/1999/xlink">
    <!-- Generator: sketchtool 52.2 (67145) - http://www.bohemiancoding.com/sketch -->
    <title>7DF56415-8107-40CF-B881-F1258856FB90</title>
    <desc>Created with sketchtool.</desc>
    <defs>
        <linearGradient x1="50%" y1="0%" x2="50%" y2="98.6271676%" id="linearGradient-1">
            <stop stop-color="#6082FF" offset="0%"></stop>
            <stop stop-color="#A5C2FF" offset="100%"></stop>
        </linearGradient>
    </defs>
    <g id="Page-1" stroke="none" stroke-width="1" fill="none" fill-rule="evenodd">
        <g id="Desktop-HD" transform="translate(-236.000000, -1468.000000)">
            <g id="icon_mob_development" transform="translate(236.000000, 1468.000000)">
                <g id="apple-logo" transform="translate(0.000000, 6.000000)" fill="url(#linearGradient-1)">
                    <path d="M53.1263158,47.0284034 C51.1511278,44.1783529 50.1642105,40.967395 50.1642105,37.3982521 C50.1642105,34.1449412 51.0956391,31.1643529 52.9545865,28.4584538 C53.956391,26.9901681 55.5882707,25.2919664 57.8494737,23.3626387 C56.3613534,21.5205882 54.8730827,20.081042 53.3837594,19.0443025 C50.6933835,17.1732101 47.644812,16.2376639 44.2390977,16.2376639 C42.2073684,16.2376639 39.7309774,16.7268403 36.8121805,17.7064034 C34.0070677,18.6852101 31.9603008,19.1751429 30.6729323,19.1751429 C29.6992481,19.1751429 27.7246617,18.7435966 24.7479699,17.8794454 C21.7427068,17.0155966 19.2094737,16.5840504 17.1487218,16.5840504 C12.2257143,16.5840504 8.16135338,18.6572269 4.95578947,22.8026723 C1.72150376,27.0062017 0.10406015,32.3898655 0.10406015,38.9542689 C0.10406015,45.9216303 2.20827068,53.1618655 6.41548872,60.6763361 C10.6798496,68.1330252 14.9876692,71.8618992 19.3381955,71.8618992 C20.7978947,71.8618992 22.6870677,71.3722689 25.0051128,70.3934622 C27.3239098,69.4441513 29.3559398,68.968437 31.1021053,68.968437 C32.9619549,68.968437 35.1233083,69.4290252 37.5846617,70.3498992 C40.1890226,71.2703193 42.1930827,71.7310588 43.5953383,71.7310588 C47.258797,71.7310588 50.9372932,68.9094454 54.6290226,63.2666723 C57.032782,59.6680336 58.7932331,56.069395 59.9094737,52.4703025 C57.3621053,51.6923697 55.1013534,49.878605 53.1263158,47.0284034 Z" id="Path"></path>
                    <path d="M38.5282707,13.6465714 C40.3318797,11.8328067 41.6627068,9.846 42.5216541,7.68705882 C43.3512782,5.52781513 43.7654135,3.5697479 43.7654135,1.81331092 C43.7654135,1.6985042 43.7592481,1.55435294 43.7437594,1.38146218 C43.7308271,1.20872269 43.7231579,1.06517647 43.7231579,0.949915966 C43.6942857,0.863394958 43.658797,0.70502521 43.6160902,0.474957983 C43.5733835,0.244890756 43.5377444,0.0865210084 43.5084211,-7.10542736e-15 C38.4709774,1.18104202 34.8933835,3.31139496 32.775188,6.39211765 C30.6291729,9.50157983 29.5123308,13.2008067 29.4263158,17.4905546 C31.3440602,17.3176639 32.8317293,17.0733782 33.8912782,16.7564874 C35.4380451,16.2381176 36.9818045,15.2012269 38.5282707,13.6465714 Z" id="Path"></path>
                </g>
                <g id="android-logo" transform="translate(71.000000, 0.000000)" fill="#3555DA">
                    <path d="M5.25683333,27.3439921 L5.04116667,27.3439921 C2.2765,27.3439921 0.0223333333,29.5963874 0.0223333333,32.3429881 L0.0223333333,54.1077866 C0.0223333333,56.8651779 2.2765,59.1102688 5.04116667,59.1102688 L5.2605,59.1102688 C8.02516667,59.1102688 10.2793333,56.8578735 10.2793333,54.1077866 L10.2793333,32.3428221 C10.2756667,29.5963874 8.018,27.3439921 5.25683333,27.3439921 Z" id="Path"></path>
                    <path d="M12.6808333,62.5086166 C12.6808333,65.036751 14.7551667,67.095747 17.2933333,67.095747 L22.2223333,67.095747 L22.2223333,78.8519289 C22.2223333,81.6128063 24.4836667,83.8580632 27.2411667,83.8580632 L27.4568333,83.8580632 C30.2251667,83.8580632 32.4828333,81.6093202 32.4828333,78.8519289 L32.4828333,67.095747 L39.3711667,67.095747 L39.3711667,78.8519289 C39.3711667,81.6128063 41.6396667,83.8580632 44.3971667,83.8580632 L44.6093333,83.8580632 C47.3775,83.8580632 49.6316667,81.6093202 49.6316667,78.8519289 L49.6316667,67.095747 L54.5641667,67.095747 C57.0986667,67.095747 59.1731667,65.036751 59.1731667,62.5086166 L59.1731667,28.1424901 L12.6808333,28.1424901 L12.6808333,62.5086166 Z" id="Path"></path>
                    <path d="M47.5068333,7.30152569 L51.422,1.28207905 C51.6736667,0.902418972 51.5621667,0.383312253 51.1775,0.136126482 C50.7965,-0.114545455 50.2751667,-0.0106245059 50.027,0.379660079 L45.9681667,6.60694862 C42.9231667,5.36437945 39.5221667,4.6661502 35.9305,4.6661502 C32.3353333,4.6661502 28.9415,5.36437945 25.8893333,6.60694862 L21.8376667,0.379660079 C21.5896667,-0.0106245059 21.0646667,-0.114545455 20.68,0.136126482 C20.2953333,0.383146245 20.1838333,0.902418972 20.4355,1.28207905 L24.3541667,7.30152569 C17.2896667,10.7500079 12.5261667,17.2493834 12.5261667,24.7047984 C12.5261667,25.1631462 12.555,25.6143557 12.5945,26.061913 L59.27,26.061913 C59.3095,25.6143557 59.3346667,25.1631462 59.3346667,24.7047984 C59.3348333,17.2493834 54.5676667,10.7500079 47.5068333,7.30152569 Z M25.1091667,18.080087 C23.8688333,18.080087 22.8621667,17.0845375 22.8621667,15.8456206 C22.8621667,14.6067036 23.8688333,13.6146403 25.1091667,13.6146403 C26.3566667,13.6146403 27.3561667,14.6065375 27.3561667,15.8456206 C27.3561667,17.0847036 26.3495,18.080087 25.1091667,18.080087 Z M46.7483333,18.080087 C45.508,18.080087 44.5013333,17.0845375 44.5013333,15.8456206 C44.5013333,14.6067036 45.508,13.6146403 46.7483333,13.6146403 C47.9921667,13.6146403 48.9916667,14.6065375 48.9916667,15.8456206 C48.9916667,17.0845375 47.9921667,18.080087 46.7483333,18.080087 Z" id="Shape" fill-rule="nonzero"></path>
                    <path d="M66.8126667,27.3439921 L66.6041667,27.3439921 C63.8395,27.3439921 61.5781667,29.5963874 61.5781667,32.3429881 L61.5781667,54.1077866 C61.5781667,56.8651779 63.8431667,59.1102688 66.6041667,59.1102688 L66.8163333,59.1102688 C69.5845,59.1102688 71.8351667,56.8578735 71.8351667,54.1077866 L71.8351667,32.3428221 C71.8351667,29.5963874 69.5773333,27.3439921 66.8126667,27.3439921 Z" id="Path"></path>
                </g>
            </g>
        </g>
    </g>
</svg>