<?xml version="1.0" encoding="UTF-8"?>
<svg width="142px" height="105px" viewBox="0 0 142 105" version="1.1" xmlns="http://www.w3.org/2000/svg" xmlns:xlink="http://www.w3.org/1999/xlink">
    <!-- Generator: sketchtool 52.2 (67145) - http://www.bohemiancoding.com/sketch -->
    <title>18913107-5580-4078-9AC0-CE3367D82E0F</title>
    <desc>Created with sketchtool.</desc>
    <defs>
        <linearGradient x1="-2.79808785%" y1="-3.70371104%" x2="59.4629841%" y2="97.4039066%" id="linearGradient-1">
            <stop stop-color="#6082FF" offset="0%"></stop>
            <stop stop-color="#BDD5FF" offset="100%"></stop>
        </linearGradient>
        <linearGradient x1="50%" y1="0%" x2="50%" y2="98.6271676%" id="linearGradient-2">
            <stop stop-color="#2C57F5" offset="0%"></stop>
            <stop stop-color="#C1D4FE" offset="100%"></stop>
        </linearGradient>
    </defs>
    <g id="Page-1" stroke="none" stroke-width="1" fill="none" fill-rule="evenodd">
        <g id="Desktop-HD" transform="translate(-227.000000, -2446.000000)">
            <g id="icon_analiz" transform="translate(227.000000, 2446.000000)">
                <path d="M102.849074,101.608333 C102.121508,101.170708 101.456249,100.63623 100.871402,100.019444 C98.0174702,96.9638889 93.4049319,91.1338889 93.4049319,81.8694444 C93.4049319,74.9761111 97.4272114,68.5594444 97.4272114,68.5594444 L67.2083916,68.5594444 C67.2083916,68.5594444 71.2306711,74.9761111 71.2306711,81.8694444 C71.2306711,91.1338889 66.6181327,96.9883333 63.7642007,100.019444 C63.179354,100.63623 62.5140954,101.170708 61.7865293,101.608333 C61.1854867,101.885612 60.8139937,102.503372 60.8494172,103.166667 C60.9509279,103.951121 61.6195521,104.536041 62.4072138,104.529444 L102.228389,104.529444 C103.015778,104.538463 103.684047,103.951562 103.780101,103.166667 C103.820038,102.503964 103.450121,101.884804 102.849074,101.608333 Z" id="Path" fill="url(#linearGradient-1)"></path>
                <path d="M141.033346,15.3622222 L141.033346,86.6666667 C141.033346,87.3788072 140.458495,87.9561111 139.74938,87.9561111 L24.8801374,87.9561111 C24.1724072,87.9527663 23.5995028,87.3774171 23.5961722,86.6666667 L23.5961722,15.3622222 C23.5995217,14.6524694 24.1733926,14.0788809 24.8801374,14.0788889 L139.74938,14.0788889 C140.089348,14.0772631 140.415948,14.2117529 140.656914,14.4526011 C140.897881,14.6934492 141.033349,15.0207996 141.033346,15.3622222 Z" id="Path" fill="url(#linearGradient-2)"></path>
                <path d="M141.437173,15.2833479 L141.437173,86.5877923 C141.437173,87.2999329 140.862323,87.8772368 140.153208,87.8772368 L25.2839652,87.8772368 C24.5762349,87.873892 24.0033306,87.2985428 24,86.5877923 L24,15.2833479 C24.0033495,14.5735951 24.5772204,14.0000066 25.2839652,14.0000146 L140.153208,14.0000146 C140.493176,13.9983887 140.819775,14.1328786 141.060742,14.3737267 C141.301709,14.6145749 141.437177,14.9419253 141.437173,15.2833479 Z" id="Path" fill="url(#linearGradient-1)" opacity="0.7" style="mix-blend-mode: lighten;"></path>
                <rect id="Rectangle" fill="#F5F8FF" x="65.0664213" y="49.0405556" width="18.0485339" height="28.9238889" rx="3"></rect>
                <rect id="Rectangle" fill="#FFFFFF" x="88.9932033" y="34.2394444" width="18.0485339" height="43.7311111" rx="3"></rect>
                <rect id="Rectangle" fill="#FFFFFF" x="112.919985" y="22.2226496" width="18.0485339" height="55.7417949" rx="3"></rect>
                <path d="M14.517139,27.9205556 C14.517139,27.1016667 13.3001104,26.7838889 13.5009201,26.2277778 C13.6347933,25.8183333 14.4380321,25.5738889 15.0161207,25.4944444 C17.8213716,25.14 17.584051,27.3888889 21.3203288,28.165 C21.8375659,28.275 23.3892774,28.5866667 23.8091523,27.9388889 C24.7036683,26.5883333 20.2615139,23.8505556 21.1682002,22.28 C21.8193105,21.1494444 25.7807386,21.0211111 28.4703717,22.9583333 C30.8557478,24.6755556 30.356766,26.0138889 33.3384861,27.3766667 C34.4338118,27.8716667 36.2471844,28.385 36.7461661,27.7188889 C37.6528524,26.4966667 33.6123175,23.7222222 34.6650472,21.9438889 C35.7786284,20.0616667 42.2045393,21.8827778 42.6122439,21.9988889 C46.0111868,22.9944131 49.0072362,25.0488097 51.1679549,27.8655556 C51.8592367,28.9101615 52.9490142,29.6220925 54.1801006,29.8333333 C54.2572503,29.848455 54.3129269,29.916337 54.3129269,29.9952778 C54.3129269,30.0742185 54.2572503,30.1421006 54.1801006,30.1572222 L11.1277144,30.1572222 C10.9512452,30.1572222 10.9269047,29.87 11.1277144,29.8272222 C13.281855,29.375 14.4927984,28.6783333 14.517139,27.9205556 Z" id="Path" fill="#EDD7FF" style="mix-blend-mode: color-burn;"></path>
                <path d="M76.4281055,70.7220382 C76.3657083,70.6223224 76.2922137,70.530062 76.2090404,70.4470382 L74.8581386,69.0903715 L54.1017161,48.2453715 C53.4239809,47.5840459 52.3453941,47.5840459 51.6676589,48.2453715 L50.5175669,49.3575937 L46.562224,45.360927 C55.0881939,34.4702449 53.6899014,18.7943321 43.3722469,9.59887914 C33.0545923,0.403426206 17.3897359,0.872066784 7.63542251,10.6680065 C-2.11889091,20.4639461 -2.58554007,36.1956519 6.57083826,46.5573368 C15.7272166,56.9190216 31.3365172,58.3232813 42.1809211,49.760927 L46.1606046,53.7514826 L45.0409383,54.8637048 C44.3824229,55.5443322 44.3824229,56.6275219 45.0409383,57.3081493 L67.1482625,79.5098159 C67.8259977,80.1711415 68.9045845,80.1711415 69.5823197,79.5098159 L76.2090404,72.9281493 C76.8011848,72.3415395 76.8932358,71.4145325 76.4281055,70.7220382 Z" id="Path" fill="#00125D" opacity="0.3" style="mix-blend-mode: multiply;"></path>
                <path d="M44.9185131,42.7338889 C40.6493168,47.0323869 34.8624874,49.463739 28.8172249,49.4988889 C27.8001885,49.5026647 26.7839438,49.4414298 25.7746534,49.3155556 C22.0312848,48.8426805 18.4626968,47.4465245 15.3873144,45.2516667 C14.6989513,44.7571053 14.036796,44.2267524 13.4035578,43.6627778 C13.1479818,43.4427778 12.898491,43.2105556 12.6550853,42.9722222 L12.4177647,42.7338889 C3.45219135,33.7216769 3.45219135,19.1188787 12.4177647,10.1066667 C12.7341921,9.78277778 13.0627898,9.49555556 13.3913876,9.17777778 C16.1197011,6.73490996 19.3917645,4.98501682 22.9328917,4.075 C23.871633,3.83826812 24.8250633,3.66473417 25.7868237,3.55555556 C26.795824,3.42654028 27.8122729,3.36529308 28.8293952,3.37222222 C29.7100449,3.37829594 30.5896828,3.4333804 31.4642621,3.53722222 C36.549938,4.16342612 41.2823653,6.47522229 44.9124279,10.1066667 L45.1436634,10.345 C45.9718808,11.1973969 46.7308868,12.1149519 47.4134217,13.0888889 C53.8901315,22.2597646 52.8360319,34.7847857 44.9185131,42.7338889 Z" id="Path" fill="#41FFFF" opacity="0.65" style="mix-blend-mode: color-dodge;"></path>
                <path d="M42.6487548,8.11444444 L10.4340081,40.4666667 C7.93276315,37.1987206 6.35415798,33.3145276 5.86406576,29.2222222 L31.4216661,3.55555556 C35.5038219,4.0349367 39.3820344,5.60972964 42.6487548,8.11444444 Z" id="Path" fill="#FFFFFF" opacity="0.27" style="mix-blend-mode: lighten;"></path>
                <path d="M47.4134217,13.0888889 L15.3873144,45.2516667 C14.6989513,44.7571053 14.036796,44.2267524 13.4035578,43.6627778 C13.1479818,43.4427778 12.898491,43.2105556 12.6550853,42.9722222 L45.1436634,10.345 C45.9718808,11.1973969 46.7308868,12.1149519 47.4134217,13.0888889 Z" id="Path" fill="#FFFFFF" opacity="0.27" style="mix-blend-mode: lighten;"></path>
                <path d="M49.1598577,42.5994444 C57.6858276,31.7087623 56.2875351,16.0328495 45.9698805,6.83739653 C35.6522259,-2.3580564 19.9873696,-1.88941582 10.2330562,7.90652386 C0.478742771,17.7024635 0.0120936058,33.4341693 9.16847194,43.7958541 C18.3248503,54.157539 33.9341508,55.5617987 44.7785548,46.9994444 L48.7582383,50.99 C49.9821737,52.0960396 51.8545622,52.0445373 53.016378,50.8728747 C54.1781939,49.7012122 54.2216481,47.8206344 53.1152006,46.5961111 L49.1598577,42.5994444 Z M14.6084161,40.54 C8.91982972,34.8287441 7.21742173,26.2383725 10.2951072,18.7749902 C13.3727927,11.3116079 20.6243938,6.4451952 28.6681389,6.4451952 C36.711884,6.4451952 43.9634851,11.3116079 47.0411705,18.7749902 C50.118856,26.2383725 48.416448,34.8287441 42.7278616,40.54 C34.9567036,48.3230909 22.3795742,48.3230909 14.6084161,40.54 Z" id="Shape" fill="#FFFFFF" fill-rule="nonzero"></path>
                <path d="M58.5896295,43.7336661 L67.9332652,43.7137717 C68.8944323,43.7117251 69.6752712,44.489246 69.6773177,45.450413 C69.6773229,45.4528834 69.6773229,45.4553538 69.6773177,45.4578241 L69.6106026,76.7913058 C69.6085623,77.74958 68.8322354,78.5259069 67.8739612,78.5279472 L58.5303255,78.5478417 C57.5691585,78.5498882 56.7883196,77.7723673 56.7862731,76.8112003 C56.7862678,76.8087299 56.7862678,76.8062595 56.7862731,76.8037892 L56.8529881,45.4703075 C56.8550285,44.5120333 57.6313554,43.7357064 58.5896295,43.7336661 Z" id="Rectangle" fill="#1F2692" transform="translate(63.231795, 61.130807) rotate(-45.000000) translate(-63.231795, -61.130807) "></path>
                <path d="M68.4071648,75.4161111 L69.7580665,76.7727778 C70.4358017,77.4341034 71.5143885,77.4341034 72.1921237,76.7727778 L78.806674,70.1666667 C79.4651894,69.4860393 79.4651894,68.4028496 78.806674,67.7222222 L77.4557723,66.3288889 L68.4071648,75.4161111 Z" id="Path" fill="url(#linearGradient-1)"></path>
            </g>
        </g>
    </g>
</svg>