<?xml version="1.0" encoding="UTF-8"?>
<svg width="89px" height="92px" viewBox="0 0 89 92" version="1.1" xmlns="http://www.w3.org/2000/svg" xmlns:xlink="http://www.w3.org/1999/xlink">
    <!-- Generator: sketchtool 52.2 (67145) - http://www.bohemiancoding.com/sketch -->
    <title>C0001BD4-2532-455D-93EB-5AB8EF9D4B34</title>
    <desc>Created with sketchtool.</desc>
    <defs>
        <linearGradient x1="-2.79808785%" y1="-3.70371104%" x2="59.4629841%" y2="97.4039066%" id="linearGradient-1">
            <stop stop-color="#6082FF" offset="0%"></stop>
            <stop stop-color="#BDD5FF" offset="100%"></stop>
        </linearGradient>
    </defs>
    <g id="Page-1" stroke="none" stroke-width="1" fill="none" fill-rule="evenodd">
        <g id="Desktop-HD" transform="translate(-262.000000, -1129.000000)">
            <g id="icon_consalting" transform="translate(262.000000, 1129.000000)">
                <path d="M25.4138836,39.8642085 C25.4138836,23.4393634 36.8683164,12.7114479 52.0607493,12.7114479 C72.3567343,12.7114479 78.1191522,27.7090817 79.8407045,35.7824901 C82.7033164,40.6810817 92.1399731,50.7933634 86.5276597,51.3825183 C83.7620179,51.672462 82.5213313,51.7505746 80.6244358,51.8750254 C80.5341075,53.764293 80.4690179,54.9955606 80.2684358,57.2939268 L75.0094657,57.7017014 L79.9257194,60.9691944 C79.6839582,63.2781521 79.3824209,65.7433352 78.9945403,68.3687155 C78.477809,71.8718704 70.8503761,72.1896169 61.1958687,72.1988845 L61.1958687,91.6078986 L27.8075851,82.432969 L34.5848687,61.988631 C30.3673313,56.7630254 25.4138836,47.3444901 25.4138836,39.8642085" id="Fill-1" fill="url(#linearGradient-1)"></path>
                <path d="M42.1065642,42.3840704 C42.1065642,49.1957606 47.6471463,54.7166056 54.4802209,54.7166056 C61.3146239,54.7166056 66.855206,49.1957606 66.855206,42.3840704 C66.855206,35.5723803 61.3146239,30.0515352 54.4802209,30.0515352 C47.6471463,30.0515352 42.1065642,35.5723803 42.1065642,42.3840704" id="Fill-4" fill="#00C3CA"></path>
                <polygon id="Fill-6" fill="#F5F8FF" points="56.7315224 51.0459718 70.1612239 63.5797465 72.5283582 61.0616056 59.0973284 48.527831"></polygon>
                <path d="M70.4613,64.2607831 L73.0515985,64.8009521 C74.0491955,65.0088113 75.0428075,64.2912338 75.2726134,63.1989803 L75.2819119,63.159262 C75.5117179,62.0656845 74.8887179,61.0105014 73.8911209,60.8026423 L71.3008224,60.2624732 C70.3032254,60.0546141 69.3082851,60.7721915 69.0784791,61.8644451 L69.070509,61.9054873 C68.840703,62.9977408 69.463703,64.0529239 70.4613,64.2607831" id="Fill-8" fill="#F5F8FF"></path>
                <path d="M51.5996761,34.2677662 L54.3281239,34.0069493 C54.9258851,33.9486958 55.3642433,33.4191183 55.3071239,32.8220197 L53.2933328,11.9407803 C53.2348851,11.3450056 52.7035418,10.9067803 52.1057806,10.9637099 L49.3773328,11.2258507 C48.7795716,11.2827803 48.3398851,11.8136817 48.3983328,12.4094563 L50.4107955,33.2920197 C50.4679149,33.8877944 51.0019149,34.3246958 51.5996761,34.2677662" id="Fill-10" fill="#00C3CA"></path>
                <path d="M45.1122403,42.3840704 C45.1122403,47.540831 49.3071955,51.7218451 54.4811507,51.7218451 C59.655106,51.7218451 63.8487328,47.540831 63.8487328,42.3840704 C63.8487328,37.2273099 59.655106,33.0476197 54.4811507,33.0476197 C49.3071955,33.0476197 45.1122403,37.2273099 45.1122403,42.3840704" id="Fill-12" fill="#00C3CA"></path>
                <path d="M13.5780791,35.7760028 C13.5780791,18.6269606 25.5386164,7.42639718 41.3978851,7.42639718 C62.5891836,7.42639718 68.6053179,23.0860028 70.4025866,31.5142282 C73.3913925,36.6299465 83.2451537,47.1870732 77.3844373,47.8013831 C74.4965866,48.1045662 73.2027657,48.1853268 71.2208552,48.3163972 C71.1278701,50.2877493 71.0587955,51.5732986 70.8489149,53.9736085 L65.3588104,54.3985944 L70.4929149,57.8117211 C70.2391985,60.2212986 69.9243776,62.7950451 69.5192284,65.5356085 C68.9799149,69.1936648 61.0164075,69.5246507 50.9368254,69.5352423 L50.9368254,89.7982 L16.0793776,80.2194676 L23.1555418,58.8761718 C18.7520343,53.4188761 13.5780791,43.5859465 13.5780791,35.7760028" id="Fill-14" fill="#F5F8FF"></path>
                <path d="M31.0076,38.4070761 C31.0076,45.5193014 36.7912716,51.2837521 43.9272119,51.2837521 C51.0618239,51.2837521 56.8454955,45.5193014 56.8454955,38.4070761 C56.8454955,31.2961746 51.0618239,25.5304 43.9272119,25.5304 C36.7912716,25.5304 31.0076,31.2961746 31.0076,38.4070761" id="Fill-16" fill="#FFB600"></path>
                <polygon id="Fill-18" fill="#D2DAF6" points="46.2758821 47.4504056 60.2980313 60.5362648 62.7674493 57.9069127 48.7453 44.8223775"></polygon>
                <path d="M60.6101955,61.2477521 L63.3147328,61.8117521 C64.3561657,62.0288789 65.3949418,61.2795268 65.6340463,60.1382873 L65.6433448,60.0972451 C65.8824493,58.9560056 65.2315537,57.8544845 64.1914493,57.6373577 L61.4869119,57.0733577 C60.4454791,56.856231 59.406703,57.6055831 59.1675985,58.7454986 L59.1583,58.7878648 C58.9191955,59.9291042 59.5687627,61.0306254 60.6101955,61.2477521" id="Fill-20" fill="#D2DAF6"></path>
                <path d="M40.9183478,29.933307 L43.7663478,29.6605746 C44.3906761,29.6009972 44.8489597,29.0475887 44.7891836,28.4240113 L42.6863925,6.62395493 C42.6266164,6.00037746 42.0713627,5.5436169 41.445706,5.60451831 L38.597706,5.8772507 C37.9733776,5.93682817 37.515094,6.49023662 37.5748701,7.11249014 L39.6776612,28.9138704 C39.7374373,29.5374479 40.292691,29.9928845 40.9183478,29.933307" id="Fill-22" fill="#FFB600"></path>
                <path d="M34.1455806,38.4070761 C34.1455806,43.7915549 38.5251776,48.1552732 43.9262821,48.1552732 C49.3287149,48.1552732 53.7083119,43.7915549 53.7083119,38.4070761 C53.7083119,33.0239211 49.3287149,28.6588789 43.9262821,28.6588789 C38.5251776,28.6588789 34.1455806,33.0239211 34.1455806,38.4070761" id="Fill-24" fill="#FFB600"></path>
                <path d="M0,31.6005493 C0,13.6439014 12.5237612,1.91508451 29.1322239,1.91508451 C51.3224478,1.91508451 57.6215224,18.3108028 59.503806,27.1375352 C62.6334179,32.4942113 72.9521045,43.5491408 66.8150896,44.1939014 C63.7904179,44.5103239 62.4354925,44.5950563 60.3592687,44.7327465 C60.2622985,46.7967746 60.1918955,48.1432254 59.9713881,50.6560704 L54.2222537,51.1022394 L59.596791,54.6755634 C59.3337761,57.1976761 59.0016866,59.8945493 58.5792687,62.7635352 C58.0133881,66.5950282 49.6752836,66.9405775 39.1201493,66.951169 L39.1201493,88.171338 L2.61819403,78.1411408 L10.0277761,55.7903239 C5.41704478,50.0761831 0,39.7798732 0,31.6005493" id="Fill-26" fill="#D2DAF6"></path>
                <path d="M18.2507119,34.3558085 C18.2507119,41.8029915 24.3080254,47.8401746 31.7787119,47.8401746 C39.2507269,47.8401746 45.3067119,41.8029915 45.3067119,34.3558085 C45.3067119,26.9086254 39.2507269,20.8727662 31.7787119,20.8727662 C24.3080254,20.8727662 18.2507119,26.9086254 18.2507119,34.3558085" id="Fill-28" fill="#3555DA"></path>
                <polygon id="Fill-30" fill="#3555DA" points="34.2402925 43.8257127 48.9226358 57.5285296 51.5089493 54.7760507 36.8252776 41.0732338"></polygon>
                <path d="M49.2491463,58.2733803 L52.081206,58.8638592 C53.1717881,59.0915775 54.2583851,58.3064789 54.5107731,57.1122817 L54.5200716,57.0685915 C54.769803,55.8743944 54.0910119,54.7199155 52.9991015,54.4935211 L50.1670418,53.9017183 C49.0764597,53.674 47.9898627,54.4590986 47.7374746,55.6532958 L47.7281761,55.6983099 C47.4784448,56.892507 48.1598925,58.045662 49.2491463,58.2733803" id="Fill-32" fill="#3555DA"></path>
                <path d="M28.6285104,25.4824732 L31.6106746,25.1965014 C32.2655552,25.1342761 32.7450925,24.5543887 32.6826597,23.9016845 L30.4815701,1.07292394 C30.417809,0.420219718 29.8359881,-0.0577239437 29.1811075,0.00582535211 L26.1989433,0.290473239 C25.545391,0.354022535 25.0645254,0.933909859 25.1282866,1.58529014 L27.3293761,24.4140507 C27.391809,25.0680789 27.9749582,25.5446986 28.6285104,25.4824732" id="Fill-34" fill="#3555DA"></path>
                <path d="M21.5365388,34.3558085 C21.5365388,39.9944845 26.1220313,44.5634141 31.7781806,44.5634141 C37.4356582,44.5634141 42.0211507,39.9944845 42.0211507,34.3558085 C42.0211507,28.7184563 37.4356582,24.1482028 31.7781806,24.1482028 C26.1220313,24.1482028 21.5365388,28.7184563 21.5365388,34.3558085" id="Fill-36" fill="url(#linearGradient-1)"></path>
            </g>
        </g>
    </g>
</svg>