<?xml version="1.0" encoding="UTF-8"?>
<svg width="125px" height="93px" viewBox="0 0 125 93" version="1.1" xmlns="http://www.w3.org/2000/svg" xmlns:xlink="http://www.w3.org/1999/xlink">
    <!-- Generator: sketchtool 52.2 (67145) - http://www.bohemiancoding.com/sketch -->
    <title>A91A3E0E-555C-4180-8990-2E92D7E31405</title>
    <desc>Created with sketchtool.</desc>
    <defs>
        <linearGradient x1="50%" y1="0%" x2="50%" y2="98.6271676%" id="linearGradient-1">
            <stop stop-color="#6082FF" offset="0%"></stop>
            <stop stop-color="#A5C2FF" offset="100%"></stop>
        </linearGradient>
        <linearGradient x1="50%" y1="0%" x2="50%" y2="100%" id="linearGradient-2">
            <stop stop-color="#6082FF" offset="0%"></stop>
            <stop stop-color="#A5C2FF" offset="98.6271676%"></stop>
        </linearGradient>
        <linearGradient x1="75.7202315%" y1="-173.380796%" x2="131.590899%" y2="91.4030826%" id="linearGradient-3">
            <stop stop-color="#6082FF" offset="0%"></stop>
            <stop stop-color="#BDD5FF" offset="100%"></stop>
        </linearGradient>
        <linearGradient x1="36.9506302%" y1="-14.0212353%" x2="75.4741405%" y2="100%" id="linearGradient-4">
            <stop stop-color="#1E247D" offset="0%"></stop>
            <stop stop-color="#4553C7" offset="100%"></stop>
        </linearGradient>
    </defs>
    <g id="Page-1" stroke="none" stroke-width="1" fill="none" fill-rule="evenodd">
        <g id="Desktop-HD" transform="translate(-650.000000, -1133.000000)">
            <g id="icon_analitik" transform="translate(650.000000, 1133.000000)">
                <polygon id="Fill-13" fill="url(#linearGradient-1)" points="70 74.6275211 75.5451613 74.6275211 75.5451613 49 70 49"></polygon>
                <polygon id="Fill-15" fill="url(#linearGradient-2)" points="80 74.326169 85.5483871 74.326169 85.5483871 37 80 37"></polygon>
                <polygon id="Fill-16" fill="url(#linearGradient-2)" points="92 74.2159155 97.5467742 74.2159155 97.5467742 56 92 56"></polygon>
                <polygon id="Fill-17" fill="url(#linearGradient-2)" points="103 74.6275211 108.546774 74.6275211 108.546774 49 103 49"></polygon>
                <polygon id="Fill-18" fill="#4553C7" points="104.122045 70 84.5244964 23.7172775 66.0760347 56.9720584 64 55.5190962 84.8151961 18 104.478563 64.4575365 119.019034 40.0752824 121.045704 41.5941582"></polygon>
                <polygon id="Fill-19" fill="#4553C7" points="124.963343 43.9215762 124.963343 33 115 37.8346101"></polygon>
                <polygon id="Fill-20" fill="#F5F8FF" points="57.5693548 75.2691268 59.5451613 75.2691268 59.5451613 20 57.5693548 20"></polygon>
                <polygon id="Fill-21" fill="#F5F8FF" points="57 75.9652958 116.91129 75.9652958 116.91129 74 57 74"></polygon>
                <polygon id="Fill-22" fill="url(#linearGradient-3)" points="22.5919355 74.4508243 16 69.5359793 35.6148387 43.4322441 42.2003226 48.3535117"></polygon>
                <path d="M31.3900807,11.1742338 C22.4610485,23.0302338 24.8739517,39.8556704 36.7884678,48.7476704 C48.7045968,57.6396704 65.5997581,55.2328253 74.5336291,43.3736141 C83.4594356,31.5160084 81.0481452,14.6905718 69.1384678,5.7985718 C57.2207259,-3.09503383 40.3239517,-0.683371859 31.3900807,11.1742338 Z" id="Fill-23" fill-opacity="0.15" fill="#41FFFF"></path>
                <path d="M41.0884678,43.0354067 C32.3465323,36.5068996 30.5723388,24.1611813 37.1271775,15.4554349 C43.6836291,6.74968837 56.0884678,4.98670246 64.8320162,11.5103926 C73.5771775,18.0405053 75.351371,30.3862236 68.7949194,39.0887588 C62.2400807,47.7977165 49.835242,49.5590968 41.0884678,43.0354067 M69.1384678,5.79915316 C57.2207259,-3.09445247 40.3239517,-0.684396134 31.3900807,11.1732095 C22.4610485,23.0308151 24.8739517,39.8562518 36.7884678,48.7482518 C48.7045968,57.6402518 65.5997581,55.2334067 74.5336291,43.3741954 C83.4594356,31.5149841 81.0481452,14.6911532 69.1384678,5.79915316" id="Fill-24" fill="url(#linearGradient-3)"></path>
                <path d="M12.423769,91.5185256 C11.189898,93.1562721 8.86086572,93.4838214 7.21731731,92.2619341 L1.48909159,88.1737144 C-0.154456821,86.9486158 -0.488327793,84.6300806 0.742317384,82.9891228 L16.3405331,62.9124782 C17.576017,61.277943 19.9066622,60.9439711 21.5502106,62.1770979 L27.2703715,66.1323317 C28.9155328,67.3654584 29.246178,69.6839937 28.0155328,71.3169232 L12.423769,91.5185256 Z" id="Fill-25" fill="url(#linearGradient-4)"></path>
                <path d="M74.7451613,43.0072863 C83.6709677,31.148075 81.2612903,14.3242441 69.35,5.43224406 L65.0435484,11.1434835 C73.7887097,17.6735962 75.5629032,30.0193145 69.0064516,38.7218497 C62.4516129,47.4308074 50.0467742,49.1937934 41.3,42.6684976 L37,48.3813427 C48.916129,57.2733427 65.8112903,54.8664976 74.7451613,43.0072863" id="Fill-28" fill="url(#linearGradient-3)"></path>
            </g>
        </g>
    </g>
</svg>