<?xml version="1.0" encoding="UTF-8"?>
<svg width="97px" height="104px" viewBox="0 0 97 104" version="1.1" xmlns="http://www.w3.org/2000/svg" xmlns:xlink="http://www.w3.org/1999/xlink">
    <!-- Generator: sketchtool 52.2 (67145) - http://www.bohemiancoding.com/sketch -->
    <title>CCAC374D-7708-463D-BF16-F7DBE0134B0C</title>
    <desc>Created with sketchtool.</desc>
    <defs>
        <linearGradient x1="-2.79808785%" y1="-3.70371104%" x2="59.4629841%" y2="97.4039066%" id="linearGradient-1">
            <stop stop-color="#6082FF" offset="0%"></stop>
            <stop stop-color="#BDD5FF" offset="100%"></stop>
        </linearGradient>
    </defs>
    <g id="Page-1" stroke="none" stroke-width="1" fill="none" fill-rule="evenodd">
        <g id="Desktop-HD" transform="translate(-1084.000000, -2447.000000)">
            <g id="icon_soprovo_2" transform="translate(1084.000000, 2447.000000)">
                <path d="M86.054,30.6225394 L86.054,21.2701772 C86.054,20.6048228 85.506,20.0654528 84.83,20.0654528 L81,20.0654528 L81,31.8272638 L84.83,31.8272638 C85.506,31.8272638 86.054,31.2878937 86.054,30.6225394" id="Fill-5" fill="#1E247D"></path>
                <path d="M64.0600113,21.8903894 L66.1630113,29.9543657 C66.3750113,30.7732634 67.1250113,31.346098 67.9840113,31.346098 L79.5510113,31.346098 L79.5510113,19.5498382 L79.5030113,19.5498382 C79.0760113,19.1866492 75.7580113,16.3372398 74.1630113,13.8677516 C73.6090113,13.0084996 72.4240113,12.8067279 71.6010113,13.4218854 C70.9970113,13.8726728 70.7460113,14.6482634 70.9860113,15.3549563 C71.3450113,16.4149957 72.1260113,18.0065311 73.7770113,19.5626335 L65.8770113,19.5793657 C64.6510113,19.5823185 63.7550113,20.7220823 64.0600113,21.8903894" id="Fill-7" fill="#1E247D"></path>
                <path d="M96.6543,103.871555 L96.6543,55.6353346 L23.5573,55.6353346 L23.5573,91.5113189 C23.5573,93.3577756 25.0793,94.8548228 26.9553,94.8548228 L86.2463,94.8548228 L96.6543,103.871555 Z" id="Fill-9" fill="#DCEAFC"></path>
                <path d="M26.7109,46.8272638 L93.5009,46.8272638 C95.2429,46.8272638 96.6539,48.2170276 96.6539,49.9306102 L96.6539,55.6353346 L23.5579,55.6353346 L23.5579,49.9306102 C23.5579,48.2170276 24.9699,46.8272638 26.7109,46.8272638" id="Fill-12" fill="url(#linearGradient-1)"></path>
                <path d="M34.5175,51.4380906 C34.5175,52.5286417 33.6185,53.4144685 32.5095,53.4144685 C31.4005,53.4144685 30.5015,52.5286417 30.5015,51.4380906 C30.5015,50.3465551 31.4005,49.4617126 32.5095,49.4617126 C33.6185,49.4617126 34.5175,50.3465551 34.5175,51.4380906" id="Fill-14" fill="#3555DA"></path>
                <path d="M40.9199,51.4380906 C40.9199,52.5286417 40.0219,53.4144685 38.9119,53.4144685 C37.8039,53.4144685 36.9049,52.5286417 36.9049,51.4380906 C36.9049,50.3465551 37.8039,49.4617126 38.9119,49.4617126 C40.0219,49.4617126 40.9199,50.3465551 40.9199,51.4380906" id="Fill-16" fill="#3555DA"></path>
                <path d="M47.3232,51.4380906 C47.3232,52.5286417 46.4252,53.4144685 45.3152,53.4144685 C44.2072,53.4144685 43.3072,52.5286417 43.3072,51.4380906 C43.3072,50.3465551 44.2072,49.4617126 45.3152,49.4617126 C46.4252,49.4617126 47.3232,50.3465551 47.3232,51.4380906" id="Fill-18" fill="#3555DA"></path>
                <path d="M54.5459,73.2463583 C54.5459,79.6715551 49.2539,84.8792323 42.7269,84.8792323 C36.1979,84.8792323 30.9059,79.6715551 30.9059,73.2463583 C30.9059,66.8221457 36.1979,61.6134843 42.7269,61.6134843 C49.2539,61.6134843 54.5459,66.8221457 54.5459,73.2463583" id="Fill-20" fill="#FFFFFF"></path>
                <path d="M47.3847,72.4033465 L44.6837,72.4033465 L44.6837,67.6622047 C44.6837,67.4427165 44.5037,67.2655512 44.2807,67.2655512 L41.1707,67.2655512 C40.9477,67.2655512 40.7687,67.4427165 40.7687,67.6622047 L40.7687,72.4033465 L38.0677,72.4033465 C37.7517,72.4033465 37.5597,72.7448819 37.7267,73.0076772 L42.3847,80.3718504 C42.5417,80.6208661 42.9097,80.6208661 43.0677,80.3718504 L47.7257,73.0076772 C47.8927,72.7448819 47.6997,72.4033465 47.3847,72.4033465" id="Fill-22" fill="#3555DA" transform="translate(42.726128, 73.912082) scale(1, -1) translate(-42.726128, -73.912082) "></path>
                <path d="M79.7041,68.4077756 L62.9301,68.4077756 C62.4151,68.4077756 61.9981,67.9973425 61.9981,67.4904528 L61.9981,67.4028543 C61.9981,66.8969488 62.4151,66.4865157 62.9301,66.4865157 L79.7041,66.4865157 C80.2181,66.4865157 80.6351,66.8969488 80.6351,67.4028543 L80.6351,67.4904528 C80.6351,67.9973425 80.2181,68.4077756 79.7041,68.4077756" id="Fill-24" fill="#3555DA"></path>
                <path d="M72.6797,73.8797244 L62.9297,73.8797244 C62.4147,73.8797244 61.9977,73.4692913 61.9977,72.9624016 L61.9977,72.8748031 C61.9977,72.3688976 62.4147,71.9584646 62.9297,71.9584646 L72.6797,71.9584646 C73.1947,71.9584646 73.6117,72.3688976 73.6117,72.8748031 L73.6117,72.9624016 C73.6117,73.4692913 73.1947,73.8797244 72.6797,73.8797244" id="Fill-26" fill="#3555DA"></path>
                <path d="M87.8808,79.7958661 L62.9298,79.7958661 C62.4148,79.7958661 61.9978,79.3854331 61.9978,78.8785433 L61.9978,78.7909449 C61.9978,78.2850394 62.4148,77.8746063 62.9298,77.8746063 L87.8808,77.8746063 C88.3958,77.8746063 88.8128,78.2850394 88.8128,78.7909449 L88.8128,78.8785433 C88.8128,79.3854331 88.3958,79.7958661 87.8808,79.7958661" id="Fill-28" fill="#3555DA"></path>
                <path d="M-1.0658141e-13,44.8279528 L-1.0658141e-13,7.75413386 L56.182,7.75413386 L56.182,35.3279528 C56.182,36.7472441 55.013,37.8978346 53.571,37.8978346 L8,37.8978346 L-1.0658141e-13,44.8279528 Z" id="Fill-30" fill="#FFFFFF"></path>
                <path d="M53.7588,0.983562992 L2.4228,0.983562992 C1.0848,0.983562992 -0.0002,2.05246063 -0.0002,3.36938976 L-0.0002,7.75423228 L56.1818,7.75423228 L56.1818,3.36938976 C56.1818,2.05246063 55.0968,0.983562992 53.7588,0.983562992" id="Fill-32" fill="url(#linearGradient-1)"></path>
                <path d="M8.5166,4.53612205 C8.5166,5.51938976 7.7056,6.31761811 6.7056,6.31761811 C5.7066,6.31761811 4.8966,5.51938976 4.8966,4.53612205 C4.8966,3.55187008 5.7066,2.75462598 6.7056,2.75462598 C7.7056,2.75462598 8.5166,3.55187008 8.5166,4.53612205" id="Fill-35" fill="#3555DA"></path>
                <path d="M14.2871,4.53612205 C14.2871,5.51938976 13.4761,6.31761811 12.4771,6.31761811 C11.4781,6.31761811 10.6681,5.51938976 10.6681,4.53612205 C10.6681,3.55187008 11.4781,2.75462598 12.4771,2.75462598 C13.4761,2.75462598 14.2871,3.55187008 14.2871,4.53612205" id="Fill-37" fill="#3555DA"></path>
                <path d="M20.0586,4.53612205 C20.0586,5.51938976 19.2476,6.31761811 18.2486,6.31761811 C17.2486,6.31761811 16.4396,5.51938976 16.4396,4.53612205 C16.4396,3.55187008 17.2486,2.75462598 18.2486,2.75462598 C19.2476,2.75462598 20.0586,3.55187008 20.0586,4.53612205" id="Fill-39" fill="#3555DA"></path>
                <path d="M13.5851272,18.4862205 L8.40900196,18.4862205 C7.63209393,18.4862205 7,18.1692913 7,17.7765748 L7,17.7096457 C7,17.3179134 7.63209393,17 8.40900196,17 L13.5851272,17 C14.3639922,17 14.9960861,17.3179134 14.9960861,17.7096457 L14.9960861,17.7765748 C14.9960861,18.1692913 14.3639922,18.4862205 13.5851272,18.4862205" id="Fill-45" fill="#3555DA"></path>
                <path d="M45.590998,22.4862205 L8.4109589,22.4862205 C7.63405088,22.4862205 7,22.1692913 7,21.7775591 L7,21.7096457 C7,21.3179134 7.63405088,21 8.4109589,21 L45.590998,21 C46.3679061,21 47,21.3179134 47,21.7096457 L47,21.7775591 C47,22.1692913 46.3679061,22.4862205 45.590998,22.4862205" id="Fill-47" fill="#3555DA"></path>
                <path d="M35.2387476,26.4862205 L8.4109589,26.4862205 C7.63405088,26.4862205 7,26.1692913 7,25.7765748 L7,25.7096457 C7,25.3179134 7.63405088,25 8.4109589,25 L35.2387476,25 C36.0156556,25 36.6477495,25.3179134 36.6477495,25.7096457 L36.6477495,25.7765748 C36.6477495,26.1692913 36.0156556,26.4862205 35.2387476,26.4862205" id="Fill-49" fill="#3555DA"></path>
            </g>
        </g>
    </g>
</svg>