<?xml version="1.0" encoding="UTF-8"?>
<svg width="126px" height="110px" viewBox="0 0 126 110" version="1.1" xmlns="http://www.w3.org/2000/svg" xmlns:xlink="http://www.w3.org/1999/xlink">
    <!-- Generator: sketchtool 52.2 (67145) - http://www.bohemiancoding.com/sketch -->
    <title>250F51EA-48E6-436D-9FBD-1152B88E910F</title>
    <desc>Created with sketchtool.</desc>
    <defs>
        <polygon id="path-1" points="0.453469841 0.163814444 88.9188222 0.163814444 88.9188222 12.7111111 0.453469841 12.7111111"></polygon>
        <linearGradient x1="7.5913939%" y1="-96.9386095%" x2="65.7468079%" y2="100%" id="linearGradient-3">
            <stop stop-color="#6082FF" offset="0%"></stop>
            <stop stop-color="#A5C2FF" offset="100%"></stop>
        </linearGradient>
        <linearGradient x1="-5.54116678%" y1="-106.888547%" x2="100%" y2="100%" id="linearGradient-4">
            <stop stop-color="#6082FF" offset="0%"></stop>
            <stop stop-color="#A5C2FF" offset="100%"></stop>
        </linearGradient>
        <linearGradient x1="50%" y1="0%" x2="50%" y2="100%" id="linearGradient-5">
            <stop stop-color="#6082FF" offset="0%"></stop>
            <stop stop-color="#A5C2FF" offset="98.6271676%"></stop>
        </linearGradient>
        <linearGradient x1="35.1167081%" y1="0%" x2="76.6408556%" y2="100%" id="linearGradient-6">
            <stop stop-color="#6082FF" offset="0%"></stop>
            <stop stop-color="#A5C2FF" offset="100%"></stop>
        </linearGradient>
        <linearGradient x1="-2.79808785%" y1="-3.70371104%" x2="59.4629841%" y2="97.4039066%" id="linearGradient-7">
            <stop stop-color="#6082FF" offset="0%"></stop>
            <stop stop-color="#BDD5FF" offset="100%"></stop>
        </linearGradient>
        <linearGradient x1="-1.93805656%" y1="50%" x2="92.3765655%" y2="999.861163%" id="linearGradient-8">
            <stop stop-color="#6082FF" offset="0%"></stop>
            <stop stop-color="#A5C2FF" offset="100%"></stop>
        </linearGradient>
    </defs>
    <g id="Page-1" stroke="none" stroke-width="1" fill="none" fill-rule="evenodd">
        <g id="Desktop-HD" transform="translate(-658.000000, -1447.000000)">
            <g id="icon_QA" transform="translate(658.000000, 1447.000000)">
                <g id="Group-14" transform="translate(18.050794, 96.912852)">
                    <mask id="mask-2" fill="white">
                        <use xlink:href="#path-1"></use>
                    </mask>
                    <g id="Clip-13"></g>
                    <path d="M88.9188222,6.43780704 C88.9188222,9.90211444 69.1152857,12.71127 44.6858825,12.71127 C20.2570063,12.71127 0.453469841,9.90211444 0.453469841,6.43780704 C0.453469841,2.97297 20.2570063,0.163814444 44.6858825,0.163814444 C69.1152857,0.163814444 88.9188222,2.97297 88.9188222,6.43780704" id="Fill-12" fill="#F5F8FF" mask="url(#mask-2)"></path>
                </g>
                <path d="M125.134074,10.6047252 L125.134074,83.0977807 C125.134074,85.4901178 123.198461,87.435977 120.817547,87.435977 L4.64231492,87.435977 C2.26140063,87.435977 0.339489524,85.4901178 0.339489524,83.0977807 L0.339489524,10.6047252 C0.339489524,8.19755852 2.26140063,6.26652889 4.64231492,6.26652889 L120.817547,6.26652889 C123.198461,6.26652889 125.134074,8.19755852 125.134074,10.6047252" id="Fill-15" fill="#DCEAFC"></path>
                <path d="M125.134074,79.430943 L125.134074,83.0975689 C125.134074,85.4899059 123.198461,87.4357652 120.817547,87.4357652 L4.64231492,87.4357652 C2.26140063,87.4357652 0.339489524,85.4899059 0.339489524,83.0975689 L0.339489524,79.430943 L125.134074,79.430943 Z" id="Fill-17" fill="url(#linearGradient-3)"></path>
                <polygon id="Fill-19" fill="#DCEAFC" points="4.94891429 74.5322926 120.524965 74.5322926 120.524965 11.0895481 4.94891429 11.0895481"></polygon>
                <path d="M84.6702825,100.889258 L40.8035968,100.889258 C40.0710889,100.889258 39.4771778,101.486151 39.4771778,102.222866 C39.4771778,102.959051 40.0710889,103.555943 40.8035968,103.555943 L84.6702825,103.555943 C85.4027905,103.555943 85.9972286,102.959051 85.9972286,102.222866 C85.9972286,101.486151 85.4027905,100.889258 84.6702825,100.889258" id="Fill-22" fill="url(#linearGradient-4)"></path>
                <path d="M72.6065092,87.4359241 L52.8672648,87.4359241 C52.8672648,93.3889611 48.2060902,100.889046 40.8035441,100.889046 L84.6702298,100.889046 C77.2682108,100.889046 72.6065092,93.3889611 72.6065092,87.4359241" id="Fill-23" fill="url(#linearGradient-5)"></path>
                <polygon id="Fill-50" fill="#FFFFFF" points="10.9286032 69.1787963 114.544749 69.1787963 114.544749 6.9595 10.9286032 6.9595"></polygon>
                <path d="M10.9286032,7.4923037 L114.928603,7.4923037 L114.928603,4.9595 C114.928603,2.750361 113.137742,0.9595 110.928603,0.9595 L14.9286032,0.9595 C12.7194642,0.9595 10.9286032,2.750361 10.9286032,4.9595 L10.9286032,7.4923037 Z" id="Fill-51" fill="url(#linearGradient-6)"></path>
                <polygon id="Fill-52" fill="url(#linearGradient-7)" points="16.6279365 65.2058148 53.6522603 65.2058148 53.6522603 13.9956259 16.6279365 13.9956259"></polygon>
                <path d="M37.5914378,45.5822687 C36.8688443,48.1417391 34.5358822,49.8121694 32.003712,49.8127881 C31.4803267,49.8127881 30.9482801,49.7416401 30.4180896,49.5913014 C27.8586983,48.8686856 26.1877011,46.5356513 26.1877011,44.0034027 C26.1877011,43.4806199 26.2588468,42.9485569 26.4085622,42.4177313 C27.1311557,39.8582609 29.4647365,38.1878306 31.9969067,38.1872119 C32.5196733,38.1872119 33.0517199,38.2583599 33.5825291,38.4086986 C36.1413017,39.1313144 37.8122989,41.4643487 37.8122989,43.9965973 C37.8122989,44.5199988 37.7417718,45.0520617 37.5914378,45.5822687 Z M40.7428854,43.4750518 C40.6636971,42.1479878 40.2819847,40.8728926 39.6484781,39.7363814 L40.7329869,39.1325517 C40.1891858,38.1568967 39.4832962,37.2721873 38.6382084,36.5211124 L37.8122989,37.4503666 C36.8583271,36.6027779 35.7088592,35.9463606 34.3991586,35.5732979 L34.737565,34.384199 L34.7220985,34.3798682 C33.8145261,34.1231169 32.8970552,34 31.9956694,34 C31.7989359,34 31.6034397,34.0055681 31.4091809,34.017323 L31.4821826,35.2565348 C30.154541,35.3351069 28.8794853,35.7155938 27.7430092,36.3478826 L27.1391982,35.2633402 C26.1635734,35.8059207 25.2782727,36.5112135 24.5266023,37.3557089 L25.4552091,38.1822625 C24.607028,39.1356451 23.9500124,40.2851486 23.5757238,41.594271 L22.3866617,41.2546169 L22.3804751,41.277508 C22.1231131,42.1857271 22,43.1026077 22,44.0046401 C22,44.1982863 22.0061866,44.3913138 22.0167038,44.5831039 L23.2564959,44.5107186 C23.3338283,45.8384013 23.7130661,47.1141151 24.3447167,48.2512451 L23.2595892,48.8538373 C23.8015343,49.8301111 24.5061866,50.7160578 25.3494185,51.4677514 L26.1771839,50.5403533 C27.1299183,51.389798 28.2787676,52.0474526 29.5872309,52.4229901 L29.2469686,53.6114703 L29.2779015,53.6201318 C30.1860926,53.8775018 31.1029448,54 32.0049493,54 C32.2060134,54 32.4076961,53.9944319 32.6075229,53.9820583 L32.5320465,52.7428465 C33.8590695,52.6624184 35.1335066,52.2794568 36.269364,51.645312 L36.8750309,52.7292356 C37.8494185,52.1847991 38.7341005,51.4776503 39.4839149,50.6325363 L38.5546894,49.8078386 C39.4010146,48.8532187 40.0567929,47.7024778 40.4292254,46.3927367 L41.6176689,46.7299162 L41.6201435,46.722492 C41.8768869,45.8142729 42,44.8973923 42,43.9953599 C42,43.7961456 41.9938134,43.5981687 41.9820589,43.4008105 L40.7428854,43.4750518 Z" id="Fill-53" fill="#FFFFFF"></path>
                <path d="M49.2944178,24.9610778 Z" id="Fill-54" fill="#003752"></path>
                <path d="M44.0475003,31.4718148 C43.726567,31.4718148 43.3998368,31.4278556 43.0731067,31.3351704 C41.500059,30.8897519 40.474021,29.4475704 40.472967,27.8846333 C40.473494,27.5615593 40.5172337,27.2331889 40.6094559,26.9048185 C41.0526495,25.3244037 42.4881543,24.2926852 44.0427575,24.2921556 C44.3642178,24.2921556 44.6909479,24.3361148 45.0176781,24.4288 C46.5901987,24.8742185 47.6167638,26.3169296 47.6172908,27.8798667 C47.6172908,28.2029407 47.5735511,28.5307815 47.4813289,28.8591519 C47.0376083,30.4400963 45.6026305,31.4718148 44.0475003,31.4718148 M49.936021,26.7305704 L49.238821,26.8672148 C49.1318432,26.3174593 48.9405479,25.791537 48.673367,25.3069259 L49.2946813,24.9610778 C48.8425289,24.1406815 48.2006622,23.4251519 47.4075511,22.8865185 L47.0107321,23.4765259 C46.5622686,23.1725185 46.0611067,22.931537 45.5140971,22.7721185 L45.7101352,22.0888963 L45.6790432,22.0798926 C45.1346686,21.9252407 44.5839702,21.850563 44.0427575,21.850563 C43.660694,21.850563 43.2833733,21.887637 42.9155384,21.9586074 L43.0493924,22.659837 C42.5023829,22.7652333 41.9785606,22.9564296 41.4953162,23.223363 L41.1533035,22.5989296 C40.3359511,23.0507037 39.6218876,23.6936741 39.0838368,24.4891778 L39.6698432,24.8895778 C39.3657733,25.3392333 39.1249416,25.8429111 38.9652654,26.3926667 L38.2854559,26.1929963 L38.2722813,26.2401333 C38.1178749,26.7872407 38.0440971,27.3407037 38.0440971,27.8846333 C38.0440971,28.2627889 38.0794051,28.6367074 38.14844,29.0010926 L38.846167,28.8681556 C38.9499829,29.4189704 39.1386432,29.9459519 39.4031892,30.4321519 L38.780294,30.7742926 C39.2282305,31.597337 39.8658813,32.3165741 40.6553035,32.8594444 L41.0558114,32.2715556 C41.502167,32.5787407 42.0033289,32.8207815 42.5492844,32.9833778 L42.3490305,33.6660704 L42.4117416,33.6840778 C42.9561162,33.8392593 43.5068146,33.9134074 44.0480273,33.9134074 C44.4411575,33.9134074 44.8290178,33.8747444 45.2073924,33.7990074 L45.0687956,33.0983074 C45.6158051,32.9897333 46.1385733,32.7958889 46.6202368,32.5263074 L46.9659384,33.1496815 C47.7806559,32.6931407 48.4915575,32.0459333 49.0253924,31.2477815 L48.4362241,30.8500296 C48.738186,30.3987852 48.9774368,29.8945778 49.1344781,29.3442926 L49.8142876,29.5397259 L49.8185035,29.523837 C49.9729098,28.9767296 50.0466876,28.4237963 50.0466876,27.879337 C50.0466876,27.4900593 50.0087448,27.1055481 49.936021,26.7305704" id="Fill-55" fill="#FFFFFF"></path>
                <polygon id="Fill-56" fill="url(#linearGradient-8)" points="59.9744889 28.0694741 108.522902 28.0694741 108.522902 25.5643259 59.9744889 25.5643259"></polygon>
                <polygon id="Fill-57" fill="url(#linearGradient-8)" points="59.9744889 62.7739852 92.5800508 62.7739852 92.5800508 60.2693667 59.9744889 60.2693667"></polygon>
                <polygon id="Fill-58" fill="url(#linearGradient-8)" points="59.9744889 56.9899 108.522902 56.9899 108.522902 54.4852815 59.9744889 54.4852815"></polygon>
                <polygon id="Fill-59" fill="url(#linearGradient-8)" points="59.9744889 51.2058148 108.522902 51.2058148 108.522902 48.7006667 59.9744889 48.7006667"></polygon>
                <polygon id="Fill-60" fill="url(#linearGradient-8)" points="59.9744889 45.4217296 108.522902 45.4217296 108.522902 42.9165815 59.9744889 42.9165815"></polygon>
                <polygon id="Fill-61" fill="url(#linearGradient-8)" points="59.9744889 39.6376444 108.522902 39.6376444 108.522902 37.1324963 59.9744889 37.1324963"></polygon>
                <polygon id="Fill-62" fill="url(#linearGradient-8)" points="59.9744889 33.8535593 108.522902 33.8535593 108.522902 31.3484111 59.9744889 31.3484111"></polygon>
                <polygon id="Fill-63" fill="url(#linearGradient-6)" points="59.9744889 18.3317037 94.2358349 18.3317037 94.2358349 13.9956259 59.9744889 13.9956259"></polygon>
            </g>
        </g>
    </g>
</svg>