<?xml version="1.0" encoding="UTF-8"?>
<svg width="304px" height="188px" viewBox="0 0 304 188" version="1.1" xmlns="http://www.w3.org/2000/svg" xmlns:xlink="http://www.w3.org/1999/xlink">
    <!-- Generator: sketchtool 52.2 (67145) - http://www.bohemiancoding.com/sketch -->
    <title>50C33B1A-28F1-46E3-96C3-D9919271B831</title>
    <desc>Created with sketchtool.</desc>
    <defs>
        <linearGradient x1="61.9488992%" y1="119.495856%" x2="35.1493688%" y2="-62.3435732%" id="linearGradient-1">
            <stop stop-color="#FE6A3D" offset="0%"></stop>
            <stop stop-color="#F76B1C" offset="100%"></stop>
        </linearGradient>
        <linearGradient x1="-49.25625%" y1="50.0000006%" x2="186.125%" y2="50.0000006%" id="linearGradient-2">
            <stop stop-color="#E93E3A" offset="0%"></stop>
            <stop stop-color="#ED683C" offset="35.4%"></stop>
            <stop stop-color="#F3903F" offset="71.8%"></stop>
            <stop stop-color="#FDC70C" offset="100%"></stop>
        </linearGradient>
    </defs>
    <g id="Page-1" stroke="none" stroke-width="1" fill="none" fill-rule="evenodd">
        <g id="Desktop-HD" transform="translate(-359.000000, -4041.000000)">
            <g id="java" transform="translate(359.000000, 4041.000000)">
                <path d="M167.697686,4.37753743 C193.650725,3.63980796 219.955344,9.60760861 242.675598,21.3877213 C270.931048,36.0373055 293.824066,60.4907489 300.890617,88.9842036 C307.956497,117.477658 297.373475,149.525138 271.707481,166.699561 C250.052723,181.190291 221.359647,183.895524 194.125324,184.629887 C162.060309,185.494835 129.880342,184.317564 97.9047345,181.110191 C71.7876693,178.490444 43.2364352,173.224698 26.6994142,154.609817 C16.3247863,142.932691 12.4237972,127.632881 11.7428215,112.841271 C10.4635552,85.0242926 40.1764141,30.4868335 112.918467,12.8620995 C130.783156,8.53399683 149.037741,4.90794877 167.697686,4.37753743" id="Fill-1" fill="url(#linearGradient-1)" opacity="0.233523996"></path>
                <path d="M219.287791,2.38633936e-05 C200.245971,0.0163764634 181.925766,6.29150897 164.128305,12.7166588 C146.330845,19.1418087 128.269171,25.8691261 109.264284,26.853837 C94.1352346,27.6373398 79.0395673,24.7386638 63.8963132,23.8869066 C48.7523488,23.0358604 32.7049457,24.5132823 20.3494254,32.9590447 C4.56268416,43.7503387 -2.0106856,64.5771523 1.36087423,83.2440007 C4.73314432,101.91156 16.7441931,118.366542 31.5465269,130.731951 C46.3488606,143.09665 63.8856594,151.843158 81.4181967,160.07918 C105.397679,171.343989 130.084571,181.993086 156.29211,186.07697 C182.498938,190.160854 210.709384,187.070924 232.511238,172.606694 C253.921744,158.403394 267.068483,134.69639 273.720691,110.204461 C279.477983,89.0058038 283.879406,66.0943892 277.916852,44.8274774 C272.680884,26.1513862 259.134273,11.9871907 253.0318,8.48702327 C242.881608,2.66620865 230.944425,-0.00921891053 219.287791,2.38633936e-05" id="Fill-4" fill="url(#linearGradient-2)" opacity="0.699906994"></path>
                <g transform="translate(105.500000, 21.000000)" fill="#FFFFFF">
                    <path d="M45.6831663,0 C47.7687138,7.92164298 47.1999781,11.8826012 36.20323,20.9360637 C25.206482,29.9895263 23.5,30.177935 23.5,35.8362123 C23.5,41.4944897 31.9372999,50.4536111 36.0135598,53 C36.0135598,53 35.349989,51.3967485 33.8331772,48.9449742 C32.3163654,46.4931998 27.6713699,42.3435594 28.524336,36.0251679 C29.3773021,29.7067765 42.7916579,21.6434851 46.251902,15.5608096 C49.7118712,9.47758722 48.90646,4.3380491 45.6831663,0 Z" id="Path"></path>
                    <path d="M57.5,20 C48.1250146,23.1148762 36.5,28.0229752 36.5,37.5561769 C36.5,47.0893786 42.4998058,45.2958821 42.4998058,50.3928278 C42.4998058,55.4897736 39.2184114,57 39.2184114,57 C39.2184114,57 47.8433871,53.6962771 47.4685182,47.0891049 C47.0936493,40.4819327 41.9373665,41.4258926 41.9373665,35.2905636 C41.9373665,27.5248578 57.5,20 57.5,20 Z" id="Path"></path>
                    <path d="M24.3436916,54.000283 C14.9687213,54.000283 8.5,57.6113376 8.5,59.6608091 C8.5,61.7102807 20.0312107,63.662401 32.5,62.7839752 C44.9687893,61.9055493 51.5312957,60.8321379 56.5,57.7086889 C56.5,57.7086889 47.6874681,59.8557948 40.9373917,59.8557948 C34.1873152,59.8557948 14.8966835,61.1117399 15.3438615,58.0989431 C15.7910395,55.0864294 26.9691291,54 26.9691291,54 L24.3436916,54.000283 Z" id="Path"></path>
                    <path d="M20.4177734,65 C15.4314726,66.8096586 14.114105,68.619041 17.030919,70.5239739 C19.9474603,72.4286306 25.6864256,73 33.5892676,73 C41.4921096,73 52.5,70.237875 52.5,70.237875 L48.9249113,67.3804757 C48.9249113,67.3804757 44.032455,69.1901343 34.7184009,69.1901343 C25.4043469,69.1901343 16.0430979,69.4287342 20.4177734,65 Z" id="Path"></path>
                    <path d="M22.8617098,76 C17.9303694,77.6846705 16.8874022,79.930536 21.2495514,81.9894269 C25.6117006,84.0483179 33.9568131,84.4225383 40.1205761,83.5804744 C46.284339,82.7384106 51.5,80.8662228 51.5,80.8662228 C51.5,80.8662228 48.1335229,79.6027199 46.5686597,78.0583482 C46.5686597,78.0583482 39.3616545,79.5557728 32.5338352,79.5557728 C25.7060158,79.5557728 20.2065842,78.6203573 22.8617098,76 Z" id="Path"></path>
                    <path d="M58.7189441,54.6588905 C58.7189441,54.6588905 61.0855242,51.4889057 67.0501513,53.9130277 C73.014504,56.3368793 72.8250897,62.8633823 67.4287053,66.7789598 C62.0323209,70.6945372 55.5,72 55.5,72 C55.5,72 67.6181196,66.7789598 67.3339982,60.3459937 C67.0501513,53.913298 61.4640781,54.0998313 58.7189441,54.6588905 Z" id="Path"></path>
                    <path d="M11.3710665,88.5578995 C29.8326958,92.1115226 57.9453585,88.4600067 62.9102686,87.1779545 C67.877896,85.8927537 66.0589869,83.1088198 66.0589869,83.1088198 C67.2733139,84.0121814 67.8132261,85.0071387 67.3157026,86.0911154 C64.5971208,92.0139161 38.7335038,93 31.1429408,93 C23.5523779,93 0.5,92.5082461 0.5,88.1640384 C0.5,83.8730706 11.3767726,81.2193742 15.436304,82.2057444 C7.80063521,84.5067977 3.26885041,86.9973394 11.3710665,88.5578995 Z" id="Path"></path>
                    <path d="M13.5,94.9159678 C13.5,94.9159678 20.0145565,100.038119 52.446784,97.0801353 C65.4057549,95.9979121 70.7993907,92.6792801 71.5,89 C71.5,89 65.5457684,92.4628354 58.190589,93.9059857 C50.8359513,95.349136 38.7173324,97.5855447 13.5,94.9159678 Z" id="Path"></path>
                    <path d="M12.5,102 L7.0784287,102 C7.19812644,106.632704 7.31782417,110.702665 7.31782417,114.93226 C7.31782417,118.155192 7.19812644,121.940866 7.19812644,125.726541 C7.19812644,128.227096 6.63699217,130.335924 5.5,132.224597 C6.77359483,132.857024 8.06982043,133.44864 9.38595022,134 C11.3346512,131.598001 12.4430141,128.618823 12.3803023,124.882565 C12.3004129,121.819267 12.3004129,117.873959 12.3004129,114.932537 C12.3004129,110.540255 12.3803023,106.270128 12.5,102 Z" id="Path"></path>
                    <path d="M49.226955,110.192985 L46.0004792,119.746925 C45.418546,121.495028 44.9903309,123.164706 44.6014828,124.834384 L44.2517337,124.834384 C43.9801827,123.125627 43.5913345,121.573186 42.9309353,119.746925 L41.881688,116.678711 C41.1037239,114.505561 40.4433247,112.212229 39.8613914,110 L34.5,110.660055 L41.9601539,130 L45.8076619,129.611354 L50.3519902,117.845184 C51.2475193,115.55453 52.4113858,112.833206 53.5,110.425316 L49.226955,110.192985 Z" id="Path"></path>
                    <path d="M64.309976,110 C62.0380135,110 59.4386467,110.48287 55.9883082,112.370905 L56.8801354,115.502227 L57.2047414,115.701739 C59.4386467,114.097062 61.4299369,113.333601 62.9706963,113.333601 C65.0408993,113.333601 66.5847369,114.698366 66.5847369,116.869759 L66.5847369,118.633549 C57.6930497,119.96068 55.5,122.69021 55.5,125.861932 C55.5,129.19581 57.8976074,131 60.5758872,131 C62.8097924,131 64.7571489,129.675636 66.505824,128.23007 L66.8684873,128.311148 C67.2311506,130.115338 68.4358308,130.79772 69.7689543,130.907577 C70.3507267,130.592397 70.9297008,130.268639 71.5,129.936026 L71.5,116.26541 C71.5,112.050191 68.9414887,110 64.309976,110 Z M66.5850167,125.781407 C65.1259685,127.027738 63.906737,127.669443 62.8100722,127.669443 C61.4299369,127.669443 60.2924165,126.787548 60.2924165,125.058624 C60.2924165,123.21099 61.5497053,121.846225 66.5847369,121.123442 L66.5847369,125.781407 L66.5850167,125.781407 Z" id="Shape" fill-rule="nonzero"></path>
                    <path d="M25.3116713,110 C23.0392716,110 20.4394045,110.480166 16.9856033,112.36845 L17.8804009,115.500185 L18.2050694,115.702491 C20.4394045,114.094557 22.4279992,113.331273 23.9721338,113.331273 C26.0427352,113.331273 27.5868698,114.696218 27.5868698,116.865129 L27.5868698,118.631919 C18.6934716,119.959225 16.5,122.689114 16.5,125.861255 C16.5,129.195572 18.8952699,131 21.5768639,131 C23.8084001,131 25.7589301,129.675461 27.504863,128.229705 L27.870395,128.310793 C28.2767904,130.35821 29.7800616,130.962638 31.3213973,130.921956 C31.7014834,130.921956 32.0992023,130.875738 32.5,130.791882 L32.5,116.263469 C32.5,112.047417 29.9409964,110 25.3116713,110 Z M27.5868698,125.780443 C26.124742,127.026937 24.904996,127.668727 23.8084001,127.668727 C22.4279992,127.668727 21.2902599,126.783948 21.2902599,125.057565 C21.2902599,123.209686 22.5508694,121.844742 27.5868698,121.121863 L27.5868698,125.780443 Z" id="Shape" fill-rule="nonzero"></path>
                </g>
            </g>
        </g>
    </g>
</svg>