<?xml version="1.0" encoding="UTF-8"?>
<svg width="125px" height="80px" viewBox="0 0 125 80" version="1.1" xmlns="http://www.w3.org/2000/svg" xmlns:xlink="http://www.w3.org/1999/xlink">
    <!-- Generator: sketchtool 52.2 (67145) - http://www.bohemiancoding.com/sketch -->
    <title>47CA179F-E598-4A0C-9990-9A04500AED7F</title>
    <desc>Created with sketchtool.</desc>
    <g id="Page-1" stroke="none" stroke-width="1" fill="none" fill-rule="evenodd">
        <g id="Desktop-HD" transform="translate(-110.000000, -6485.000000)">
            <g id="logo_black" transform="translate(110.000000, 6485.000000)">
                <path d="M79.4492585,-0.000105960265 C80.4455508,2.25313907 82.6161017,2.91380132 84.6431144,3.61578808 C86.2230932,4.16307285 87.7712924,4.63618543 89.2056144,5.57340397 C90.2013771,6.224 91.4619703,6.52439735 92.6441737,6.82108609 C96.5636653,7.80598675 99.9815678,9.57393377 102.865042,12.4936689 C104.642585,14.293404 106.707733,15.8282384 108.740572,17.3530066 C112.672246,20.3034702 116.716208,23.1050596 120.622458,26.0883709 C122.205614,27.2968477 123.548305,28.8189669 125.000106,30.1985695 L125.000106,35.4965828 C124.578496,34.8406887 124.082733,34.2202914 123.749576,33.5220132 C122.645233,31.2062517 120.869809,29.6327417 118.68125,28.3368477 C116.345975,26.9535364 114.163242,25.3116821 111.921716,23.7715497 C109.967267,22.4285033 107.970975,21.1384371 106.090148,19.6979073 C104.140466,18.2043974 102.143644,16.7124768 100.465678,14.9381722 C98.3698093,12.7214834 95.8512712,11.4483709 93.0048729,10.6912848 C90.7034958,10.0788344 88.4079449,9.51724503 86.4402542,8.05711258 C85.9709746,7.70850331 85.3163136,7.57340397 84.7252119,7.43300662 C82.0334746,6.79353642 79.7458686,5.35141722 77.4153602,3.83088742 C77.2241525,3.89870199 76.93125,3.92360265 76.7490466,4.07883444 C74.5297669,5.97552318 72.1733051,7.62638411 69.3396186,8.49896689 C67.9259534,8.93393377 67.2241525,9.91565563 67.0933263,11.4149934 C66.9111229,13.4949934 65.8311441,15.034596 63.960911,15.9824106 C62.9079449,16.5164503 62.5430085,17.4732715 62.2585805,18.5201589 C61.9137712,19.7906225 61.6351695,21.0976424 61.1208686,22.3002914 C60.1123941,24.6552583 58.5197034,25.0271788 56.5377119,23.3932715 C55.6632415,22.6727417 54.9534958,21.751947 54.153178,20.9053245 C53.178072,21.2920795 52.1346398,22.0565828 51.1404661,21.997245 C50.2268008,21.9421457 49.3666314,20.9990993 48.2855932,20.3236026 C47.9158898,21.7938013 47.5784958,23.2205563 47.1966102,24.6351258 C46.4413136,27.4330066 45.7087924,30.2393642 44.867161,33.0118146 C44.5636653,34.0110199 44.057839,34.9773775 43.49375,35.8626755 C42.7448093,37.0393642 41.5710805,37.3164503 40.2797669,36.7564503 C39.809428,36.5530066 39.3777542,36.2610861 38.9121822,36.0009536 C37.7903602,36.8141987 37.2416314,37.7943311 37.0064619,39.088106 C36.839089,40.0089007 36.4301907,40.9636026 35.8766949,41.7175099 C35.0822034,42.8009536 34.0403602,43.6348609 32.4948093,43.0764503 C31.7755297,42.8163179 31.2294492,43.0086358 30.6235169,43.5951258 C29.7538136,44.4380397 28.7283898,45.170755 27.6600636,45.7477086 C25.7983051,46.7532715 23.9376059,47.682543 22.4185381,49.2475762 C21.8110169,49.8738013 20.7289195,50.1858543 19.8136653,50.3315497 C18.5832627,50.5286358 17.7448093,51.0489007 17.023411,52.0634702 C14.5827331,55.4912848 12.6563559,55.997245 8.6595339,54.4168477 C8.50381356,54.3553907 8.32637712,54.3463841 7.89735169,54.2610861 C6.13252119,55.7206887 4.25699153,57.3079735 2.33855932,58.8417483 C1.60974576,59.424 0.782415254,59.8822781 0.000105932203,60.397245 L0.000105932203,57.7482384 C1.5684322,56.0941987 3.12616525,54.4300927 4.71144068,52.7924768 C5.19819915,52.2896954 5.7628178,51.8621457 6.2871822,51.3943311 C7.48209746,50.3294305 8.7315678,50.144 10.0959746,51.096053 C10.4519068,51.3450596 10.8692797,51.5230728 11.2797669,51.6767152 C12.307839,52.0624106 13.2649364,51.9564503 13.7305085,50.8544636 C14.7596398,48.4184371 16.6176907,47.2406887 19.1584746,46.797245 C19.9582627,46.6579073 20.6838983,46.0136689 21.4090042,45.5474437 C22.6563559,44.7453245 23.8364407,43.8298278 25.1208686,43.0949934 C26.4137712,42.3553907 27.7289195,41.7593642 28.7066737,40.5058543 C29.7755297,39.1368477 31.3412076,38.8433377 32.9391949,39.3810861 C33.7432203,37.7985695 34.4259534,36.1805563 35.3438559,34.7087682 C37.0091102,32.0380397 37.6627119,31.8526093 40.9391949,32.6817483 C42.1293432,31.248106 42.3449153,29.3794967 42.840678,27.6528742 C43.4926907,25.3773775 43.8819915,23.0245298 44.5731992,20.7628079 C45.0032839,19.357245 45.6356992,17.9612185 46.4429025,16.7357881 C47.4757415,15.1675762 48.4545551,15.1363179 49.9529661,16.3299603 C50.4990466,16.765457 50.9789195,17.2836026 51.585911,17.8547285 C51.9386653,17.5538013 52.2559322,17.2857219 52.5710805,17.0139338 C52.9010593,16.7294305 53.2278602,16.4412185 53.6335805,16.0873113 C55.7305085,16.5429404 56.6621822,18.3585695 58.1590042,19.917245 C58.3994703,19.0971126 58.65,18.4004238 58.8057203,17.6830728 C59.2177966,15.7837351 60.121928,14.2171126 61.8735169,13.2952583 C63.0027542,12.7008212 63.4582627,11.8446623 63.6658898,10.5985695 C64.1007415,7.99194702 65.5154661,5.99035762 68.0996822,5.1453245 C71.2744703,4.10797351 73.6897246,1.93843709 76.2712924,-0.000105960265 L79.4492585,-0.000105960265 Z" id="Fill-1" fill="#575757"></path>
                <path d="M26.9083157,67.9598411 C26.8288665,66.7407682 25.9353284,66.1002384 24.4893538,66.2258013 C23.1789725,66.3391788 22.6747352,66.9606358 22.7833157,68.3275232 C22.8685911,69.3971921 23.8050318,70.2724238 24.8680614,70.2761325 C25.9226165,70.2798411 26.9808792,69.0777219 26.9083157,67.9598411 Z M24.9829979,78.5261987 C25.5518538,78.3328212 26.6207097,78.1728212 27.442214,77.6356026 C28.3230403,77.0597086 28.1789725,75.7267285 27.2785487,75.5179868 C25.6641419,75.143947 23.9644597,74.8912318 22.4252648,75.7850066 C22.0783369,75.9863311 21.7992055,76.6650066 21.8463453,77.0840795 C21.8940148,77.5073907 22.3066208,78.0562649 22.7017479,78.2337483 C23.2329979,78.4726887 23.8998411,78.4085828 24.9829979,78.5261987 Z M21.7160487,80.000106 C19.5947564,78.1669934 19.5094809,77.298649 21.0889301,74.9383841 C21.3325742,74.5738808 21.2944386,74.0175894 21.3738877,73.5476556 C21.4967691,72.816 21.6079979,72.0822252 21.7817267,70.9887152 C21.6122352,70.6814305 21.1509004,70.0382517 20.8828919,69.3224901 C20.1042903,67.2414305 21.2578919,64.991894 23.4506886,64.7052715 C25.5958157,64.4250066 27.7986758,64.3995762 30.3246292,64.903947 C28.9988877,66.2014305 28.5825742,67.5460662 28.5497352,69.1444768 C28.5221928,70.4562649 27.1493114,71.3712318 25.5184852,71.5635497 C24.1222987,71.7288477 24.1238877,71.7193113 23.0979343,72.7688477 C23.8505826,73.7749404 24.9533369,73.5603709 25.9681674,73.5688477 C27.4983581,73.5810331 29.0619174,73.5148079 29.6429555,75.3797086 C30.157786,77.0305695 29.5989936,78.3036821 27.8887182,79.6144106 C27.7541843,79.7177219 27.6567267,79.8703046 27.5423199,80.000106 L21.7160487,80.000106 Z" id="Fill-4" fill="#FFFFFF"></path>
                <path d="M90.4614407,70.2236291 C90.2845339,69.4034967 90.1351695,68.7163444 89.9879237,68.0291921 C89.7850636,67.0808477 89.1102754,66.7799205 88.2379237,66.7560795 C87.4333686,66.7343576 86.6341102,66.7083974 86.1944915,67.5989934 C85.4635593,69.0792583 85.1722458,70.5828344 85.9143008,72.1473377 C86.3179025,72.9987285 86.9233051,73.5868079 87.9391949,73.5783311 C88.9471398,73.5698543 89.6007415,73.0140927 89.9450212,72.1330331 C90.1992585,71.4845563 90.3152542,70.7830993 90.4614407,70.2236291 M90.1097458,64.9282649 L90.1097458,60.5515762 L92.4286017,60.5515762 C92.9301907,63.3219073 92.8586864,73.6191258 92.3475636,75.5221722 C91.2448093,76.0562119 90.8518008,75.0421722 90.184428,74.4784636 C88.7882415,75.9052185 87.1801907,76.2252185 85.3973517,75.3091921 C83.617161,74.3936954 83.0324153,72.8217748 83.0731992,70.9282649 C83.0753178,70.8403179 83.0774364,70.7518411 83.0694915,70.6644238 C82.7045551,66.3396556 84.6817797,63.5264106 90.1097458,64.9282649" id="Fill-7" fill="#FFFFFF"></path>
                <path d="M98.040678,68.6596026 L102.042797,68.6596026 C101.994068,67.2413245 101.265254,66.4598675 100.13178,66.4535099 C99.0888771,66.4476821 98.1190678,66.9721854 98.040678,68.6596026 M98.1127119,71.0818543 C98.5401483,73.0018543 99.3383475,73.669404 101.00678,73.5729801 C101.697458,73.533245 102.372246,73.2143046 103.063453,73.1682119 C103.433157,73.1433113 104.133369,73.4092715 104.143962,73.5793377 C104.174153,74.0397351 104.065042,74.7321854 103.746716,74.954702 C102.10053,76.1064901 100.231886,76.1049007 98.446928,75.4177483 C96.4855932,74.6633113 95.3404661,73.1634437 95.2769068,70.9753642 C95.2641949,70.5345695 95.2626059,70.0927152 95.2694915,69.6519205 C95.3272246,66.0217219 97.196928,64.2887417 100.758898,64.562649 C103.133369,64.7449007 105.08464,67.0924503 104.884958,69.4786755 C104.80339,70.4513907 104.277436,70.9096689 103.361653,70.9509934 C102.481356,70.9907285 101.597881,70.957351 100.716525,70.9774834 C99.8616525,70.9976159 99.007839,71.0447682 98.1127119,71.0818543" id="Fill-9" fill="#FFFFFF"></path>
                <path d="M78.4013242,70.2911788 L78.3917903,70.2911788 C78.3917903,69.7645563 78.4278072,69.2352848 78.3854343,68.7123709 C78.2551377,67.1224371 77.5660487,66.3695894 76.1958157,66.2668079 C74.7217691,66.1560795 73.5040784,66.9089272 73.2519597,68.3081325 C73.0681674,69.330649 73.0835275,70.4114437 73.1650953,71.4540927 C73.2847987,72.9804503 74.5792903,74.1497219 75.9097987,74.0834967 C77.4807733,74.0056159 78.3096928,73.0975364 78.3986758,71.3444238 C78.4166843,70.9942252 78.4013242,70.6424371 78.4013242,70.2911788 M78.3806674,65.1727682 C78.3976165,63.9415099 78.4039725,62.7102517 78.4357521,61.4795232 C78.4553496,60.7441589 78.8589513,60.2371391 79.5867055,60.4268079 C79.9632945,60.5242914 80.4389301,61.0567417 80.4871292,61.4408477 C80.6179555,62.4808477 80.5496292,63.5462781 80.5501589,64.6016424 C80.5528072,68.1910464 80.5512182,71.7804503 80.5512182,75.7089272 C79.634375,75.3529007 79.0490996,75.1256159 78.4315148,74.8856159 C75.7334216,76.2281325 73.9431674,76.0474702 72.3043962,74.2403179 C70.4632945,72.2101192 70.4717691,67.5552848 72.4722987,65.6983311 C73.1200742,65.0964768 74.1693326,64.701245 75.0612818,64.6461457 C76.1587394,64.5783311 77.2837394,64.9661457 78.3965572,65.1568742 C78.4214513,65.2178013 78.4357521,65.2861457 78.474947,65.3364768 C78.4993114,65.3682649 78.5591631,65.3714437 78.603125,65.3878675 C78.5284428,65.3163444 78.4548199,65.2442914 78.3806674,65.1727682" id="Fill-11" fill="#FFFFFF"></path>
                <path d="M33.9154661,65.2252185 C35.0690678,64.9613775 35.9006356,64.6498543 36.7480932,64.5995232 C39.5934322,64.432106 40.801589,65.578596 40.8524364,68.4411126 C40.8879237,70.4697219 40.8958686,72.5020397 40.8095339,74.528 C40.7925847,74.9158146 40.2782839,75.2819073 39.9933263,75.6580662 C39.7104873,75.2813775 39.2168432,74.9221722 39.1840042,74.525351 C39.0770127,73.2098543 39.1400424,71.8811126 39.1294492,70.5576689 C39.1236229,69.8519735 39.176589,69.1351523 39.0685381,68.4442914 C38.832839,66.941245 38.1379237,66.2922384 36.8842161,66.2604503 C35.329661,66.2201854 34.2841102,66.9634967 34.0123941,68.4193907 C33.8836864,69.1054834 33.9276483,69.8254834 33.9191737,70.530649 C33.9032839,71.7656159 33.9980932,73.0117086 33.8572034,74.2313113 C33.801589,74.7139603 33.3116525,75.4170066 32.8911017,75.5261457 C32.173411,75.7131656 31.8625,75.0419073 31.8005297,74.3648212 C31.76875,74.0146225 31.7708686,73.6601854 31.7708686,73.3073377 C31.76875,69.6893245 31.7496822,66.0713113 31.7856992,62.4538278 C31.7931144,61.6543576 31.4197034,60.4432318 32.7788136,60.4188609 C34.3381356,60.3907815 33.832839,61.7232318 33.9006356,62.5883974 C33.9689619,63.4572715 33.9154661,64.3351523 33.9154661,65.2252185" id="Fill-13" fill="#FFFFFF"></path>
                <path d="M6.45174788,64.936 C7.8564089,64.7929536 8.89401483,64.5847417 9.92738347,64.6038146 C12.0216631,64.6414305 13.1953919,65.7858013 13.2626589,67.8514967 C13.3315148,69.9616954 13.2907309,72.0756026 13.2780191,74.1879205 C13.2737818,74.7881854 13.3569386,75.5823576 12.5068326,75.6130861 C11.4634004,75.650702 11.5889301,74.7505695 11.5788665,74.0750728 C11.5518538,72.3150728 11.6461335,70.549245 11.5338453,68.7956026 C11.412553,66.8973245 10.5958157,66.1990464 8.8903072,66.2567947 C7.2653072,66.3113642 6.49888771,66.9910993 6.38924788,68.6726887 C6.29761653,70.0756026 6.35958686,71.488053 6.33945975,72.8957351 C6.33045551,73.5103046 6.38448093,74.151894 6.22081568,74.7272583 C6.12441737,75.0684503 5.57727754,75.5876556 5.37653602,75.5293775 C4.95810381,75.408053 4.52060381,75.018649 4.30715042,74.6228874 C4.11912076,74.2726887 4.20386653,73.7640795 4.20333686,73.3248742 C4.19751059,69.7163974 4.19804025,66.1079205 4.2028072,62.4994437 C4.20333686,62.061298 4.13342161,61.5770596 4.29337924,61.1977219 C4.43320975,60.8650066 4.89560381,60.3966623 5.13712924,60.4390464 C5.55132415,60.5116291 6.18426907,60.8925563 6.23352754,61.2189139 C6.41520127,62.4130861 6.39348517,63.6379868 6.45174788,64.936" id="Fill-15" fill="#FFFFFF"></path>
                <path d="M66.4622352,70.5511523 C65.5305614,70.5511523 64.6682733,70.4743311 63.8261123,70.5718146 C62.8838453,70.6804238 62.1894597,71.2647947 62.0946504,72.2338013 C62.0522775,72.6708874 62.2943326,73.4449272 62.5867055,73.5461192 C63.3510064,73.8099603 64.3536547,74.0997616 65.0067267,73.8083709 C66.1094809,73.317245 67.0316208,72.3932715 66.4622352,70.5511523 M67.1597987,74.810755 C65.6200742,75.1779073 64.3790784,75.6891656 63.1264301,75.7204238 C61.3589513,75.7649272 60.0464513,74.429298 59.8785487,72.834596 C59.7244174,71.3638675 60.8684852,69.8089007 62.5305614,69.3834702 C63.7969809,69.0602914 65.0951801,68.8647947 66.3796081,68.6120795 C66.637553,66.682543 66.3933792,66.256053 64.7996292,66.282543 C63.9384004,66.2968477 63.0851165,66.6030728 62.2201801,66.7095629 C62.0152013,66.7344636 61.6243114,66.5214834 61.5851165,66.3551258 C61.5152013,66.0579073 61.5273835,65.559894 61.7143538,65.4120795 C63.1714513,64.2671788 64.8573623,64.4049272 66.507786,64.7943311 C67.8457097,65.1095629 68.6878708,66.1294305 68.762553,67.4433377 C68.8981462,69.8179073 68.8504767,72.2062517 68.7673199,74.5850596 C68.7551377,74.9220132 68.1153072,75.237245 67.7657309,75.562543 C67.5056674,75.239894 67.2456038,74.9167152 67.1597987,74.810755" id="Fill-17" fill="#FFFFFF"></path>
                <path d="M105.503496,64.8482649 C108.046928,64.5727682 108.05964,64.568 108.687818,66.3115762 C109.396504,68.2787285 110.077648,70.2554172 110.853072,72.4615099 C111.595657,70.1748874 112.19947,68.1770066 112.896504,66.2119735 C113.517267,64.4620397 113.669809,64.4334305 116.076589,65.0199205 C115.392267,66.9129007 114.740784,68.7968742 114.029449,70.6570066 C113.495551,72.0514437 112.988136,73.4723709 112.277331,74.7772715 C111.521504,76.1637616 109.749788,76.1155497 109.181992,74.6930331 C107.891737,71.4601854 106.736547,68.1738278 105.503496,64.8482649" id="Fill-19" fill="#FFFFFF"></path>
                <path d="M56.0940148,70.3504106 L56.1056674,70.3504106 C56.1056674,69.8227285 56.1628708,69.2876291 56.0950742,68.7689536 C55.9065148,67.3194172 55.1136123,66.4976954 53.7809852,66.2868344 C52.3832097,66.0659073 51.4552436,66.5347815 50.8127648,67.9074967 C50.1046081,69.4200795 50.1056674,70.9776954 50.8307733,72.4849801 C51.3662606,73.5975629 52.7788665,74.2741192 53.8969809,74.050543 C54.8694386,73.856106 55.9144597,72.7509404 56.0828919,71.6669669 C56.1490996,71.2378278 56.0940148,70.7901457 56.0940148,70.3504106 M58.2931674,70.2153113 C58.2259004,73.3655099 56.4801377,75.5382252 53.826536,75.7739868 C50.1761123,76.0982252 47.3111758,72.3922649 48.3413665,68.679947 C49.1782309,65.6632583 51.3477225,64.1527947 54.1888242,64.6084238 C56.6893538,65.0089536 58.356197,67.2865695 58.2931674,70.2153113" id="Fill-21" fill="#FFFFFF"></path>
                <path d="M43.9319915,67.810543 C43.9319915,65.7851126 43.9256356,63.7596821 43.9351695,61.7347815 C43.9383475,61.0947815 44.0098517,60.4542517 44.8456568,60.3880265 C45.7873941,60.3133245 46.0585805,60.8971656 46.0585805,61.7104106 C46.0575212,65.8492185 46.0591102,69.9880265 46.0495763,74.1263046 C46.0490466,74.3837881 46.046928,74.7424636 45.8917373,74.8770331 C45.5310381,75.1917351 45.0951271,75.5170331 44.6491525,75.5901457 C44.4695975,75.6198146 43.9960805,75.0121325 43.978072,74.6767682 C43.8965042,73.1843179 43.9304025,71.6849801 43.9245763,70.1882914 C43.921928,69.3957086 43.9240466,68.6031258 43.9240466,67.810543 L43.9319915,67.810543 Z" id="Fill-23" fill="#FFFFFF"></path>
                <path d="M18.0572034,70.141404 C18.0582627,71.6402119 18.1170551,73.1432583 18.0153602,74.634649 C17.9909958,74.9864371 17.4258475,75.3006093 17.1091102,75.6322649 C16.8649364,75.3165033 16.4141949,75.0039205 16.4083686,74.6833907 C16.3532839,71.6868344 16.3442797,68.6876291 16.4141949,65.6921325 C16.4226695,65.3551788 17.0052966,65.0325298 17.3215042,64.7029934 C17.5662076,65.0171656 18.0058263,65.3212715 18.0227754,65.6465695 C18.0979873,67.1416689 18.0556144,68.642596 18.0572034,70.141404" id="Fill-25" fill="#FFFFFF"></path>
                <path d="M118.689725,72.5650861 C119.546716,72.5571391 120.115042,72.9984636 120.245869,73.9335629 C120.36822,74.8098543 119.816843,75.6109139 119.053602,75.7115762 C118.25964,75.8170066 117.24428,74.9873377 117.189195,74.1873377 C117.138347,73.4434967 117.862394,72.6207152 118.689725,72.5650861" id="Fill-27" fill="#FFFFFF"></path>
                <path d="M17.0992585,63.4787815 C16.6241525,62.7153377 16.145339,62.2687152 16.1347458,61.8114967 C16.1273305,61.5238146 16.8079449,61.0210331 17.20625,60.9934834 C17.4636653,60.976 17.9694915,61.6281854 17.9949153,62.0059338 C18.0192797,62.3646093 17.5658898,62.7566623 17.0992585,63.4787815" id="Fill-29" fill="#FFFFFF"></path>
                <path d="M78.3806144,65.1726623 C78.4547669,65.2441854 78.5283898,65.3162384 78.603072,65.3877616 C78.5591102,65.3713377 78.4992585,65.3681589 78.4748941,65.3363709 C78.4356992,65.2860397 78.4213983,65.2176954 78.3965042,65.1567682 L78.3806144,65.1726623 Z" id="Fill-31" fill="#FFFFFF"></path>
            </g>
        </g>
    </g>
</svg>