<?xml version="1.0" encoding="UTF-8"?>
<svg width="268px" height="199px" viewBox="0 0 268 199" version="1.1" xmlns="http://www.w3.org/2000/svg" xmlns:xlink="http://www.w3.org/1999/xlink">
    <!-- Generator: sketchtool 52.2 (67145) - http://www.bohemiancoding.com/sketch -->
    <title>2B046FC3-ED8C-4E43-9BA7-6C01B8CA87F1</title>
    <desc>Created with sketchtool.</desc>
    <defs>
        <linearGradient x1="32.6267267%" y1="11.3939314%" x2="55.814924%" y2="120.518808%" id="linearGradient-1">
            <stop stop-color="#7D8BFF" offset="0%"></stop>
            <stop stop-color="#00F4DB" offset="100%"></stop>
        </linearGradient>
        <linearGradient x1="85.4035516%" y1="39.5062336%" x2="31.0024745%" y2="90.7495333%" id="linearGradient-2">
            <stop stop-color="#4253DB" offset="2.09989162%"></stop>
            <stop stop-color="#00F4DB" offset="100%"></stop>
        </linearGradient>
        <linearGradient x1="31.6471463%" y1="17.4569956%" x2="79.8862905%" y2="102.994371%" id="linearGradient-3">
            <stop stop-color="#7D8BFF" offset="0%"></stop>
            <stop stop-color="#00F4DB" offset="100%"></stop>
        </linearGradient>
    </defs>
    <g id="Page-1" stroke="none" stroke-width="1" fill="none" fill-rule="evenodd">
        <g id="Desktop-HD" transform="translate(-793.000000, -4230.000000)">
            <g id="net" transform="translate(790.000000, 4230.000000)">
                <path d="M157.528796,196 C3.47603175,196 1.72942346,162.101134 3.57594433,155.772905 C9.24075547,136.361561 18.8133201,118.005816 21.3248509,97.9070492 C23.5137177,80.3896984 20.2196819,62.2499672 24.5007952,45.1449508 C29.0658052,26.9091475 42.5836978,11.2893705 59.682505,4.49331148 C76.7807157,-2.30215082 97.015507,-0.0978622951 112.345328,10.2301902 C139.170577,28.304282 147.895626,66.2659016 174.429225,84.7881311 C199.09841,102.009508 234.007555,98.6905443 257.153479,118.014767 C272.363419,130.714787 274.962201,155 265,173 C255.037799,191 239,203 157.528796,196 Z" id="Fill-1" fill="url(#linearGradient-1)" opacity="0.3992234"></path>
                <path d="M140.6324,193.644065 C100.6924,204.051287 31.1804,193.644065 18,178.9005 C4.8196,164.156935 11.44334,152.30837 12.199006,149.3875 C15.3898608,137.049363 24.3850895,127.40594 33.3606362,118.750976 C46.595825,105.987439 60.5526839,94.0441676 75.1328032,83.0065521 C89.1874751,72.3663902 94.0003976,70.8575079 120.500199,56.7984256 C147,42.7393433 204.062425,47.5105371 217.079324,53.0536682 C226.67336,57.1399872 234.955268,64.5347963 240.327833,73.8138869 C248.479125,87.8924358 250.280759,105.502112 246.797217,121.648039 C238,162.422398 180.5724,183.236842 140.6324,193.644065 Z" id="Fill-4" fill="url(#linearGradient-2)" opacity="0.508649554" transform="translate(129.175971, 122.711302) rotate(8.000000) translate(-129.175971, -122.711302) "></path>
                <path d="M90.2646123,65.2580393 C90.2646123,56.9457115 97,50.2069377 105.308151,50.2069377 C113.616302,50.2069377 120.35169,56.9457115 120.35169,65.2580393 C120.35169,73.5709639 113.616302,80.309141 105.308151,80.309141 C97,80.309141 90.2646123,73.5709639 90.2646123,65.2580393" id="Fill-7" fill="url(#linearGradient-3)" opacity="0.494029018"></path>
                <path d="M107.095805,37.146737 C107.095805,36.690842 107.46499,36.3214715 107.92006,36.3214715 C108.375726,36.3214715 108.744911,36.690842 108.744911,37.146737 C108.744911,37.6020354 108.375726,37.9714059 107.92006,37.9714059 C107.46499,37.9714059 107.095805,37.6020354 107.095805,37.146737" id="Fill-117" fill="#FFFFFF"></path>
                <path d="M55.8673161,91.1497174 C55.8673161,90.694419 56.236501,90.3250485 56.6915706,90.3250485 C57.1472366,90.3250485 57.5164215,90.694419 57.5164215,91.1497174 C57.5164215,91.6056125 57.1472366,91.974983 56.6915706,91.974983 C56.236501,91.974983 55.8673161,91.6056125 55.8673161,91.1497174" id="Fill-119" fill="#FFFFFF"></path>
                <path d="M68.7649304,75.9959797 C68.7649304,75.3306354 69.3040954,74.7911993 69.9691054,74.7911993 C70.6341153,74.7911993 71.1732803,75.3306354 71.1732803,75.9959797 C71.1732803,76.6613239 70.6341153,77.20076 69.9691054,77.20076 C69.3040954,77.20076 68.7649304,76.6613239 68.7649304,75.9959797" id="Fill-123" fill="#FFFFFF"></path>
                <path d="M73.8709543,48.9095462 C73.8709543,48.1326151 74.5007753,47.5030741 75.2767197,47.5030741 C76.0532604,47.5030741 76.6830815,48.1326151 76.6830815,48.9095462 C76.6830815,49.6864774 76.0532604,50.3160184 75.2767197,50.3160184 C74.5007753,50.3160184 73.8709543,49.6864774 73.8709543,48.9095462" id="Fill-125" fill="#FFFFFF"></path>
                <path d="M105.30827,108.303128 C105.30827,107.950466 105.593956,107.664636 105.946441,107.664636 C106.298926,107.664636 106.584612,107.950466 106.584612,108.303128 C106.584612,108.65579 106.298926,108.94162 105.946441,108.94162 C105.593956,108.94162 105.30827,108.65579 105.30827,108.303128" id="Fill-127" fill="#FFFFFF"></path>
                <path d="M40.0039364,60.4911311 C40.0039364,60.0024164 40.3999602,59.6067902 40.887833,59.6067902 C41.3763022,59.6067902 41.7717296,60.0024164 41.7717296,60.4911311 C41.7717296,60.9792492 41.3763022,61.3754721 40.887833,61.3754721 C40.3999602,61.3754721 40.0039364,60.9792492 40.0039364,60.4911311" id="Fill-129" fill="#FFFFFF"></path>
                <text id=".NET-Copy" font-family="Ubuntu-Bold, Ubuntu" font-size="60" font-weight="bold" fill="#FFFFFF">
                    <tspan x="70" y="141.316018">.NET</tspan>
                </text>
            </g>
        </g>
    </g>
</svg>