<?xml version="1.0" encoding="UTF-8"?>
<svg width="171px" height="198px" viewBox="0 0 171 198" version="1.1" xmlns="http://www.w3.org/2000/svg" xmlns:xlink="http://www.w3.org/1999/xlink">
    <!-- Generator: sketchtool 52.2 (67145) - http://www.bohemiancoding.com/sketch -->
    <title>FDBF90A8-781C-46E6-8925-635ABC58AF15</title>
    <desc>Created with sketchtool.</desc>
    <g id="Page-1" stroke="none" stroke-width="1" fill="none" fill-rule="evenodd">
        <g id="Desktop-HD" transform="translate(-735.000000, -3202.000000)" fill="#D2DAF6">
            <g id="back_seo" transform="translate(533.000000, 3168.000000)">
                <g id="seo_icon" transform="translate(302.696335, 137.000000) scale(-1, 1) translate(-302.696335, -137.000000) translate(202.123037, 34.000000)">
                    <path d="M163.065445,34 C160.368838,34 158.183246,36.2383278 158.183246,38.9999998 C158.183246,41.7616722 160.368838,44 163.065445,44 C165.762052,44 167.947644,41.7616722 167.947644,38.9999998 C167.947644,36.2383278 165.762052,34 163.065445,34 Z" id="Path"></path>
                    <path d="M176.852218,0.999158444 C175.551394,-0.333052815 173.442321,-0.333052815 172.141496,0.999158444 L145.489088,28.2930924 C144.865364,28.9334287 144.513089,29.8002248 144.513089,30.706066 L144.513089,54.5874775 C144.513089,56.4725644 146.004538,58 147.845212,58 L171.165497,58 C172.048472,58 172.894846,57.6407873 173.520096,57.000451 L200.170979,29.7049553 C201.471803,28.3727441 201.471803,26.2143428 200.170979,24.8805699 L176.852218,0.999158444 Z M169.785373,51.1765166 L151.17581,51.1765166 L151.17581,32.1179289 L174.496095,8.23495579 L193.105658,27.2935435 L169.785373,51.1765166 Z" id="Shape" fill-rule="nonzero"></path>
                    <path d="M3.34503293,117.128527 L13.3770701,117.128527 L13.3770701,117.566796 C13.3908486,123.718212 17.5472627,129.051004 23.4106385,130.436246 L23.4106385,161.579938 C23.4106385,163.46919 24.9078663,165 26.7541406,165 L46.8197462,165 C48.6675517,165 50.1647791,163.46919 50.1647791,161.579938 L50.1647791,147.902822 L53.5358374,147.902822 C59.0562903,147.887169 63.5280712,143.316652 63.5418492,137.672377 L63.5418492,130.436246 C67.8130815,129.412575 71.2867107,126.244518 72.7655676,122.021485 L129.070817,147.608556 C130.759408,148.375526 132.73581,147.597599 133.484423,145.871133 C133.674256,145.43443 133.773765,144.961725 133.772234,144.482761 L133.772234,62.4184965 C133.773765,60.5308104 132.276537,59 130.428732,59 C129.961805,59 129.49794,59.1001757 129.070817,59.2942662 L72.7655676,84.8813368 C70.9376638,79.6268073 66.0800942,76.1128309 60.6254704,76.0971782 L26.3270173,76.0971782 C19.1776792,76.1034392 13.3847249,82.0278939 13.3770701,89.3360261 L13.3770701,89.7742949 L3.34503293,89.7742949 C1.4972274,89.7742949 0,91.3051049 0,93.1927913 L0,113.708466 C0,115.597717 1.4972274,117.128527 3.34503293,117.128527 Z M113.706628,73.7571359 L127.083699,67.6824177 L127.083699,139.220404 L113.706628,133.145686 L113.706628,73.7571359 Z M73.5754176,91.9969433 L107.018093,76.7968431 L107.018093,130.121632 L73.5754176,114.905879 L73.5754176,91.9969433 Z M43.4762441,144.482761 L43.4762441,158.161442 L30.0991736,158.161442 L30.0991736,130.805644 L43.4762441,130.805644 L43.4762441,144.482761 Z M56.8533142,137.672377 C56.8517834,139.54441 55.368334,141.062699 53.5358374,141.064264 L50.1647791,141.064264 L50.1647791,130.805644 L56.8533142,130.805644 L56.8533142,137.672377 Z M20.0656056,113.708466 L20.0656056,89.3360261 C20.0701984,85.8032664 22.8702282,82.938867 26.3270173,82.9357364 L60.6254704,82.9357364 C64.0822599,82.938867 66.8822897,85.8032664 66.8868826,89.3360261 L66.8868826,117.566796 C66.8822897,121.099556 64.0822599,123.963955 60.6254704,123.967086 L26.3270173,123.967086 C22.8702282,123.963955 20.0701984,121.099556 20.0656056,117.566796 L20.0656056,113.708466 Z M6.68853506,96.612853 L13.3770701,96.612853 L13.3770701,110.289969 L6.68853506,110.289969 L6.68853506,96.612853 Z" id="Shape" fill-rule="nonzero"></path>
                    <path d="M167.049165,135.00336 C165.742776,133.665547 163.62468,133.665547 162.318292,135.00336 L138.657802,159.232992 C137.351413,160.570805 137.351413,162.739851 138.657802,164.077664 L171.780037,197.99664 C173.086426,199.334453 175.20299,199.334453 176.51091,197.99664 L200.166805,173.770144 C201.473194,172.432331 201.473194,170.263286 200.166805,168.925472 L167.049165,135.00336 Z M189.043358,167.209684 L170.16275,165.726013 L168.710866,146.39124 L189.043358,167.209684 Z M174.144708,190.719438 L145.753345,161.651407 L161.903249,145.114593 L163.713509,169.179547 C163.839094,170.863968 165.145482,172.204919 166.790337,172.335093 L190.294612,174.184192 L174.144708,190.719438 Z" id="Shape" fill-rule="nonzero"></path>
                    <path d="M90.7911214,64.999938 C103.666531,65.0296938 114.128183,54.353641 114.158737,41.154613 C114.169431,35.9551857 112.527159,30.8935746 109.479409,26.7371648 L129.866492,5.83765979 L125.141333,1 L104.754249,21.8932406 C94.4316176,13.9578496 79.7886651,16.1018306 72.0478368,26.6823518 C64.3070088,37.2628731 66.3984225,52.2738701 76.7195269,60.2108271 C80.7786112,63.3304835 85.7176479,65.0109007 90.7911214,64.999938 Z M90.7911214,23.9448221 C100.006175,23.9448221 107.476601,31.6045808 107.476601,41.0512511 C107.476601,50.4994873 100.006175,58.1576797 90.7911214,58.1576797 C81.5745403,58.1576797 74.1041138,50.4994873 74.1041138,41.0512511 C74.1148078,31.6092788 81.5791231,23.9573508 90.7911214,23.9448221 Z" id="Shape" fill-rule="nonzero"></path>
                    <path d="M143.963073,120.182074 L160.7464,120.182074 L160.7464,123.590257 C160.7464,125.473808 162.24911,127 164.103681,127 L190.955775,127 C192.808809,127 194.311518,125.473808 194.311518,123.590257 L194.311518,106.610204 C194.294617,100.820663 190.689958,95.669376 185.313701,93.7483718 C191.355268,89.3820277 192.767323,80.8678132 188.468161,74.7318364 C184.170535,68.5958588 175.787322,67.1601775 169.745755,71.5265216 C163.704187,75.8928657 162.290596,84.4070802 166.589758,90.543057 C167.457887,91.7821126 168.524227,92.8666763 169.745755,93.7483718 C167.573126,94.5348755 165.635584,95.875365 164.119045,97.6403169 C162.949759,96.2717377 161.522339,95.1528427 159.921293,94.3507336 C164.432494,91.0486669 165.454275,84.6567639 162.203015,80.0750678 C158.951754,75.4933717 152.658198,74.4556235 148.14546,77.7576906 C143.634259,81.0597576 142.612479,87.4516606 145.863739,92.0333567 C146.496783,92.925976 147.268112,93.7077984 148.14546,94.3507336 C143.548215,96.6212949 140.622695,101.352801 140.60733,106.544662 L140.60733,116.772331 C140.60733,118.654322 142.110039,120.182074 143.963073,120.182074 Z M177.529727,75.864776 C181.237332,75.864776 184.242751,78.9171594 184.242751,82.6827018 C184.242751,86.4482441 181.237332,89.5006279 177.529727,89.5006279 C173.822123,89.5006279 170.816704,86.4466837 170.816704,82.6827018 C170.816704,78.9171594 173.822123,75.864776 177.529727,75.864776 Z M167.459424,116.772331 L167.459424,106.610204 C167.46557,102.81033 170.495573,99.7329784 174.236981,99.7267363 L180.822474,99.7267363 C184.562346,99.7329784 187.593885,102.81033 187.598495,106.610204 L187.598495,120.180513 L167.459424,120.180513 L167.459424,116.772331 Z M154.033377,82.6827018 C155.886411,82.6827018 157.38912,84.2088936 157.38912,86.0908844 C157.38912,87.974436 155.886411,89.5006279 154.033377,89.5006279 C152.178806,89.5006279 150.676097,87.974436 150.676097,86.0908844 C150.676097,84.2088936 152.178806,82.6827018 154.033377,82.6827018 Z M147.320353,106.544662 C147.320353,102.77912 150.325772,99.7267363 154.033377,99.7267363 C157.740982,99.7267363 160.7464,102.78068 160.7464,106.544662 L160.7464,113.364148 L147.320353,113.364148 L147.320353,106.544662 Z" id="Shape" fill-rule="nonzero"></path>
                    <path d="M93.4594197,141 L80.0683182,141 C79.1809929,141 78.3289159,141.360191 77.7005852,142.002271 L57.6139332,162.528463 C56.3066994,163.864302 56.3066994,166.030146 57.6139332,167.365985 L94.4402282,204.998121 C95.747462,206.33396 97.866928,206.33396 99.1741617,204.998121 L125.957897,177.629864 C127.263598,176.294026 127.263598,174.128181 125.957897,172.792342 L95.8271527,142.002271 C95.1988224,141.360191 94.3467446,141 93.4594197,141 Z M96.8079612,197.74262 L64.7156,164.948007 L81.4537102,147.842064 L92.0740277,147.842064 L118.85623,175.21032 L96.8079612,197.74262 Z" id="Shape" fill-rule="nonzero"></path>
                    <polygon id="Path" points="78.1151832 169.037541 91.8219972 155 96.6675393 159.962459 82.9607257 174"></polygon>
                    <polygon id="Path" points="87.8795812 180.036355 101.586805 166 106.431937 170.962039 92.7262824 185"></polygon>
                </g>
            </g>
        </g>
    </g>
</svg>