<?xml version="1.0" encoding="UTF-8"?>
<svg width="125px" height="187px" viewBox="0 0 125 187" version="1.1" xmlns="http://www.w3.org/2000/svg" xmlns:xlink="http://www.w3.org/1999/xlink">
    <!-- Generator: sketchtool 52.2 (67145) - http://www.bohemiancoding.com/sketch -->
    <title>D8892462-8F32-42EA-A1CE-7B8CCD5C2BB8</title>
    <desc>Created with sketchtool.</desc>
    <g id="Page-1" stroke="none" stroke-width="1" fill="none" fill-rule="evenodd">
        <g id="Desktop-HD" transform="translate(-1194.000000, -2941.000000)" fill="#D2DAF6" fill-rule="nonzero">
            <g id="back_web" transform="translate(946.000000, 2896.000000)">
                <g id="design" transform="translate(248.666667, 45.000000)">
                    <path d="M183.410346,51.3852128 C185.166845,51.3852128 186.590872,49.8852766 186.590872,48.0341489 L186.590872,33.5106383 L196.132451,33.5106383 C197.888949,33.5106383 199.312977,32.0107021 199.312977,30.1595745 L199.312977,3.35106383 C199.312977,1.49993617 197.888949,0 196.132451,0 L170.688241,0 C168.931742,0 167.507715,1.49993617 167.507715,3.35106383 L167.507715,13.4042553 L31.8052623,13.4042553 L31.8052623,3.35106383 C31.8052623,1.49993617 30.3812347,0 28.6247361,0 L3.18052623,0 C1.42402761,0 0,1.49993617 0,3.35106383 L0,30.1595745 C0,32.0107021 1.42402761,33.5106383 3.18052623,33.5106383 L12.7221049,33.5106383 L12.7221049,176.489362 L3.18052623,176.489362 C1.42402761,176.489362 0,177.989298 0,179.840426 L0,206.648936 C0,208.500064 1.42402761,210 3.18052623,210 L28.6247361,210 C30.3812347,210 31.8052623,208.500064 31.8052623,206.648936 L31.8052623,196.595745 L167.507715,196.595745 L167.507715,206.648936 C167.507715,208.500064 168.931742,210 170.688241,210 L196.132451,210 C197.888949,210 199.312977,208.500064 199.312977,206.648936 L199.312977,179.840426 C199.312977,177.989298 197.888949,176.489362 196.132451,176.489362 L186.590872,176.489362 L186.590872,61.4384043 C186.590872,59.5872766 185.166845,58.0873404 183.410346,58.0873404 C181.653847,58.0873404 180.22982,59.5872766 180.22982,61.4384043 L180.22982,176.489362 L170.688241,176.489362 C168.931742,176.489362 167.507715,177.989298 167.507715,179.840426 L167.507715,189.893617 L31.8052623,189.893617 L31.8052623,179.840426 C31.8052623,177.989298 30.3812347,176.489362 28.6247361,176.489362 L19.0831574,176.489362 L19.0831574,33.5106383 L28.6247361,33.5106383 C30.3812347,33.5106383 31.8052623,32.0107021 31.8052623,30.1595745 L31.8052623,20.106383 L167.507715,20.106383 L167.507715,30.1595745 C167.507715,32.0107021 168.931742,33.5106383 170.688241,33.5106383 L180.22982,33.5106383 L180.22982,48.0341489 C180.22982,49.8848298 181.653847,51.3852128 183.410346,51.3852128 Z M173.868767,183.191489 L192.951925,183.191489 L192.951925,203.297872 L173.868767,203.297872 L173.868767,183.191489 Z M25.4442098,203.297872 L6.36105246,203.297872 L6.36105246,183.191489 L25.4442098,183.191489 L25.4442098,203.297872 Z M25.4442098,26.8085106 L6.36105246,26.8085106 L6.36105246,6.70212766 L25.4442098,6.70212766 L25.4442098,26.8085106 Z M173.868767,6.70212766 L192.951925,6.70212766 L192.951925,26.8085106 L173.868767,26.8085106 L173.868767,6.70212766 Z" id="Shape"></path>
                    <path d="M156.905961,48.0341489 C156.905961,46.1830213 155.481933,44.6830851 153.725434,44.6830851 L45.5875426,44.6830851 C43.831044,44.6830851 42.4070164,46.1830213 42.4070164,48.0341489 L42.4070164,104.999553 C42.4070164,106.850681 43.831044,108.350617 45.5875426,108.350617 L153.725434,108.350617 C155.481933,108.350617 156.905961,106.850681 156.905961,104.999553 L156.905961,48.0341489 Z M48.7680689,53.4561702 L92.5444078,76.5168511 L48.7680689,99.5775319 L48.7680689,53.4561702 Z M59.0606758,51.3852128 L140.251877,51.3852128 L99.6564885,72.7703617 L59.0606758,51.3852128 Z M99.6564885,80.2633404 L140.252301,101.648489 L59.0606758,101.648489 L99.6564885,80.2633404 Z M106.768569,76.5168511 L150.544908,53.4561702 L150.544908,99.5779787 L106.768569,76.5168511 Z" id="Shape"></path>
                    <path d="M93.2954361,158.617021 L45.5875426,158.617021 C43.831044,158.617021 42.4070164,160.116957 42.4070164,161.968085 C42.4070164,163.819213 43.831044,165.319149 45.5875426,165.319149 L93.2954361,165.319149 C95.0519347,165.319149 96.4759623,163.819213 96.4759623,161.968085 C96.4759623,160.116957 95.0519347,158.617021 93.2954361,158.617021 Z" id="Shape"></path>
                    <path d="M153.725434,158.617021 L106.017541,158.617021 C104.261042,158.617021 102.837015,160.116957 102.837015,161.968085 C102.837015,163.819213 104.261042,165.319149 106.017541,165.319149 L153.725434,165.319149 C155.481933,165.319149 156.905961,163.819213 156.905961,161.968085 C156.905961,160.116957 155.481933,158.617021 153.725434,158.617021 Z" id="Shape"></path>
                    <path d="M93.2954361,144.375 L45.5875426,144.375 C43.831044,144.375 42.4070164,145.874936 42.4070164,147.726064 C42.4070164,149.577191 43.831044,151.077128 45.5875426,151.077128 L93.2954361,151.077128 C95.0519347,151.077128 96.4759623,149.577191 96.4759623,147.726064 C96.4759623,145.874936 95.0519347,144.375 93.2954361,144.375 Z" id="Shape"></path>
                    <path d="M153.725434,144.375 L106.017541,144.375 C104.261042,144.375 102.837015,145.874936 102.837015,147.726064 C102.837015,149.577191 104.261042,151.077128 106.017541,151.077128 L153.725434,151.077128 C155.481933,151.077128 156.905961,149.577191 156.905961,147.726064 C156.905961,145.874936 155.481933,144.375 153.725434,144.375 Z" id="Shape"></path>
                    <path d="M93.2954361,130.132979 L45.5875426,130.132979 C43.831044,130.132979 42.4070164,131.632915 42.4070164,133.484043 C42.4070164,135.33517 43.831044,136.835106 45.5875426,136.835106 L93.2954361,136.835106 C95.0519347,136.835106 96.4759623,135.33517 96.4759623,133.484043 C96.4759623,131.632915 95.0519347,130.132979 93.2954361,130.132979 Z" id="Shape"></path>
                    <path d="M153.725434,130.132979 L106.017541,130.132979 C104.261042,130.132979 102.837015,131.632915 102.837015,133.484043 C102.837015,135.33517 104.261042,136.835106 106.017541,136.835106 L153.725434,136.835106 C155.481933,136.835106 156.905961,135.33517 156.905961,133.484043 C156.905961,131.632915 155.481933,130.132979 153.725434,130.132979 Z" id="Shape"></path>
                    <path d="M153.725434,115.890511 L45.5875426,115.890511 C43.831044,115.890511 42.4070164,117.390447 42.4070164,119.241574 C42.4070164,121.092702 43.831044,122.592638 45.5875426,122.592638 L153.725434,122.592638 C155.481933,122.592638 156.905961,121.092702 156.905961,119.241574 C156.905961,117.390447 155.481933,115.890511 153.725434,115.890511 Z" id="Shape"></path>
                </g>
            </g>
        </g>
    </g>
</svg>